<svg width="254" height="169" viewBox="0 0 254 169" fill="none" xmlns="http://www.w3.org/2000/svg">
<rect x="1" y="1" width="252" height="167" rx="41" fill="#F1B47C" stroke="black" stroke-width="2"/>
<path d="M60.824 47.832C61.1227 48.1307 61.3467 48.4827 61.496 48.888C61.6453 49.2933 61.72 49.7413 61.72 50.232V54.968C61.72 55.5227 61.6133 56.0453 61.4 56.536C61.1867 57.0267 60.8987 57.4533 60.536 57.816C60.1733 58.1787 59.7467 58.4667 59.256 58.68C58.7653 58.8933 58.2427 59 57.688 59H52.888C52.5893 59 52.44 58.8507 52.44 58.552V37.048C52.44 36.7493 52.5893 36.6 52.888 36.6H57.688C58.2427 36.6 58.7653 36.7067 59.256 36.92C59.7467 37.1333 60.1733 37.4213 60.536 37.784C60.8987 38.1467 61.1867 38.5733 61.4 39.064C61.6133 39.5547 61.72 40.0773 61.72 40.632V43.832C61.72 44.8133 61.4213 45.6347 60.824 46.296C60.504 46.6373 60.12 46.9147 59.672 47.128C60.1413 47.2987 60.5253 47.5333 60.824 47.832ZM57.976 49.72C57.976 49.5067 57.9013 49.3253 57.752 49.176C57.6027 49.0267 57.4213 48.952 57.208 48.952H56.184V55.576H57.208C57.4213 55.576 57.6027 55.5013 57.752 55.352C57.9013 55.2027 57.976 55.0213 57.976 54.808V49.72ZM57.976 40.792C57.976 40.5787 57.9013 40.3973 57.752 40.248C57.6027 40.0987 57.4213 40.024 57.208 40.024H56.184V45.464H57.208C57.4213 45.464 57.6027 45.3893 57.752 45.24C57.9013 45.0907 57.976 44.9093 57.976 44.696V40.792ZM71.5195 55.256C71.8182 55.256 71.9675 55.4053 71.9675 55.704V58.552C71.9675 58.8507 71.8182 59 71.5195 59H64.5755C64.2768 59 64.1275 58.8507 64.1275 58.552V40.248C64.1275 39.9493 64.2768 39.8 64.5755 39.8H71.5195C71.8182 39.8 71.9675 39.9493 71.9675 40.248V43.096C71.9675 43.3947 71.8182 43.544 71.5195 43.544H67.8715V47.192H71.0395C71.3382 47.192 71.4875 47.3413 71.4875 47.64V50.488C71.4875 50.7867 71.3382 50.936 71.0395 50.936H67.8715V55.256H71.5195ZM83.97 58.552C84.0127 58.8507 83.8847 59 83.586 59H80.674C80.3967 59 80.2367 58.8507 80.194 58.552L79.938 55.416H77.954L77.698 58.552C77.6553 58.8507 77.4953 59 77.218 59H74.306C74.0073 59 73.8793 58.8507 73.922 58.552L76.322 40.248C76.3647 39.9493 76.5353 39.8 76.834 39.8H81.058C81.3567 39.8 81.5273 39.9493 81.57 40.248L83.97 58.552ZM79.682 51.832L79.074 44.76H78.818L78.21 51.832H79.682ZM93.1915 39.8C93.4902 39.8 93.6395 39.9493 93.6395 40.248V43.096C93.6395 43.3947 93.4902 43.544 93.1915 43.544H90.9195V58.552C90.9195 58.8507 90.7702 59 90.4715 59H87.6235C87.5168 59 87.4102 58.9573 87.3035 58.872C87.2182 58.7867 87.1755 58.68 87.1755 58.552V43.544H84.9355C84.6368 43.544 84.4875 43.3947 84.4875 43.096V40.248C84.4875 39.9493 84.6368 39.8 84.9355 39.8H93.1915ZM108.16 39.8C108.459 39.8 108.608 39.9493 108.608 40.248V43.096C108.608 43.3947 108.459 43.544 108.16 43.544H105.888V58.552C105.888 58.8507 105.739 59 105.44 59H102.592C102.486 59 102.379 58.9573 102.272 58.872C102.187 58.7867 102.144 58.68 102.144 58.552V43.544H99.9043C99.6056 43.544 99.4563 43.3947 99.4563 43.096V40.248C99.4563 39.9493 99.6056 39.8 99.9043 39.8H108.16ZM119.53 39.8C119.828 39.8 119.978 39.9493 119.978 40.248V58.552C119.978 58.8507 119.828 59 119.53 59H116.682C116.383 59 116.234 58.8507 116.234 58.552V51.32H114.122V58.552C114.122 58.8507 113.972 59 113.674 59H110.826C110.527 59 110.378 58.8507 110.378 58.552V40.248C110.378 39.9493 110.527 39.8 110.826 39.8H113.674C113.972 39.8 114.122 39.9493 114.122 40.248V47.576H116.234V40.248C116.234 39.9493 116.383 39.8 116.682 39.8H119.53ZM130.238 55.256C130.537 55.256 130.686 55.4053 130.686 55.704V58.552C130.686 58.8507 130.537 59 130.238 59H123.294C122.996 59 122.846 58.8507 122.846 58.552V40.248C122.846 39.9493 122.996 39.8 123.294 39.8H130.238C130.537 39.8 130.686 39.9493 130.686 40.248V43.096C130.686 43.3947 130.537 43.544 130.238 43.544H126.59V47.192H129.758C130.057 47.192 130.206 47.3413 130.206 47.64V50.488C130.206 50.7867 130.057 50.936 129.758 50.936H126.59V55.256H130.238ZM60.824 78.832C61.1227 79.1307 61.3467 79.4827 61.496 79.888C61.6453 80.2933 61.72 80.7413 61.72 81.232V85.968C61.72 86.5227 61.6133 87.0453 61.4 87.536C61.1867 88.0267 60.8987 88.4533 60.536 88.816C60.1733 89.1787 59.7467 89.4667 59.256 89.68C58.7653 89.8933 58.2427 90 57.688 90H52.888C52.5893 90 52.44 89.8507 52.44 89.552V68.048C52.44 67.7493 52.5893 67.6 52.888 67.6H57.688C58.2427 67.6 58.7653 67.7067 59.256 67.92C59.7467 68.1333 60.1733 68.4213 60.536 68.784C60.8987 69.1467 61.1867 69.5733 61.4 70.064C61.6133 70.5547 61.72 71.0773 61.72 71.632V74.832C61.72 75.8133 61.4213 76.6347 60.824 77.296C60.504 77.6373 60.12 77.9147 59.672 78.128C60.1413 78.2987 60.5253 78.5333 60.824 78.832ZM57.976 80.72C57.976 80.5067 57.9013 80.3253 57.752 80.176C57.6027 80.0267 57.4213 79.952 57.208 79.952H56.184V86.576H57.208C57.4213 86.576 57.6027 86.5013 57.752 86.352C57.9013 86.2027 57.976 86.0213 57.976 85.808V80.72ZM57.976 71.792C57.976 71.5787 57.9013 71.3973 57.752 71.248C57.6027 71.0987 57.4213 71.024 57.208 71.024H56.184V76.464H57.208C57.4213 76.464 57.6027 76.3893 57.752 76.24C57.9013 76.0907 57.976 75.9093 57.976 75.696V71.792ZM73.0875 86.192C73.0875 86.7467 72.9808 87.2693 72.7675 87.76C72.5542 88.2507 72.2662 88.6773 71.9035 89.04C71.5408 89.4027 71.1142 89.6907 70.6235 89.904C70.1328 90.1173 69.6102 90.224 69.0555 90.224H67.8395C67.2848 90.224 66.7622 90.1173 66.2715 89.904C65.7808 89.6907 65.3542 89.4027 64.9915 89.04C64.6288 88.6773 64.3408 88.2507 64.1275 87.76C63.9142 87.2693 63.8075 86.7467 63.8075 86.192V74.608C63.8075 74.0533 63.9142 73.5307 64.1275 73.04C64.3408 72.5493 64.6288 72.1227 64.9915 71.76C65.3542 71.3973 65.7808 71.1093 66.2715 70.896C66.7622 70.6827 67.2848 70.576 67.8395 70.576H69.0555C69.6102 70.576 70.1328 70.6827 70.6235 70.896C71.1142 71.1093 71.5408 71.3973 71.9035 71.76C72.2662 72.1227 72.5542 72.5493 72.7675 73.04C72.9808 73.5307 73.0875 74.0533 73.0875 74.608V86.192ZM69.3435 74.768C69.3435 74.5547 69.2688 74.3733 69.1195 74.224C68.9702 74.0747 68.7888 74 68.5755 74H68.3195C68.1062 74 67.9248 74.0747 67.7755 74.224C67.6262 74.3733 67.5515 74.5547 67.5515 74.768V86.032C67.5515 86.2453 67.6262 86.4267 67.7755 86.576C67.9248 86.7253 68.1062 86.8 68.3195 86.8H68.5755C68.7888 86.8 68.9702 86.7253 69.1195 86.576C69.2688 86.4267 69.3435 86.2453 69.3435 86.032V74.768ZM84.6188 86.192C84.6188 86.7467 84.5121 87.2693 84.2988 87.76C84.0854 88.2507 83.7974 88.6773 83.4348 89.04C83.0721 89.4027 82.6454 89.6907 82.1548 89.904C81.6641 90.1173 81.1414 90.224 80.5868 90.224H79.3708C78.8161 90.224 78.2934 90.1173 77.8028 89.904C77.3121 89.6907 76.8854 89.4027 76.5228 89.04C76.1601 88.6773 75.8721 88.2507 75.6588 87.76C75.4454 87.2693 75.3388 86.7467 75.3388 86.192V74.608C75.3388 74.0533 75.4454 73.5307 75.6588 73.04C75.8721 72.5493 76.1601 72.1227 76.5228 71.76C76.8854 71.3973 77.3121 71.1093 77.8028 70.896C78.2934 70.6827 78.8161 70.576 79.3708 70.576H80.5868C81.1414 70.576 81.6641 70.6827 82.1548 70.896C82.6454 71.1093 83.0721 71.3973 83.4348 71.76C83.7974 72.1227 84.0854 72.5493 84.2988 73.04C84.5121 73.5307 84.6188 74.0533 84.6188 74.608V86.192ZM80.8748 74.768C80.8748 74.5547 80.8001 74.3733 80.6508 74.224C80.5014 74.0747 80.3201 74 80.1068 74H79.8508C79.6374 74 79.4561 74.0747 79.3068 74.224C79.1574 74.3733 79.0828 74.5547 79.0828 74.768V86.032C79.0828 86.2453 79.1574 86.4267 79.3068 86.576C79.4561 86.7253 79.6374 86.8 79.8508 86.8H80.1068C80.3201 86.8 80.5014 86.7253 80.6508 86.576C80.8001 86.4267 80.8748 86.2453 80.8748 86.032V74.768ZM97.686 70.8C97.814 70.8 97.8993 70.8533 97.942 70.96C97.9847 71.0453 97.9847 71.1413 97.942 71.248L93.59 79.408L97.878 89.552C97.9207 89.6587 97.91 89.7653 97.846 89.872C97.782 89.9573 97.686 90 97.558 90H94.39C94.262 90 94.1447 89.968 94.038 89.904C93.9313 89.8187 93.8567 89.7227 93.814 89.616L91.478 84.304L90.934 85.328V89.552C90.934 89.8507 90.7847 90 90.486 90H87.638C87.3393 90 87.19 89.8507 87.19 89.552V71.248C87.19 70.9493 87.3393 70.8 87.638 70.8H90.486C90.7847 70.8 90.934 70.9493 90.934 71.248V76.848L93.878 71.184C93.9847 70.928 94.1873 70.8 94.486 70.8H97.686ZM103.84 89.552C103.84 89.8507 103.691 90 103.392 90H100.544C100.246 90 100.096 89.8507 100.096 89.552V71.248C100.096 70.9493 100.246 70.8 100.544 70.8H103.392C103.691 70.8 103.84 70.9493 103.84 71.248V89.552ZM114.113 86.256C114.412 86.256 114.561 86.4053 114.561 86.704V89.552C114.561 89.8507 114.412 90 114.113 90H107.169C106.871 90 106.721 89.8507 106.721 89.552V71.248C106.721 70.9493 106.871 70.8 107.169 70.8H114.113C114.412 70.8 114.561 70.9493 114.561 71.248V74.096C114.561 74.3947 114.412 74.544 114.113 74.544H110.465V78.192H113.633C113.932 78.192 114.081 78.3413 114.081 78.64V81.488C114.081 81.7867 113.932 81.936 113.633 81.936H110.465V86.256H114.113ZM116.484 88.176C116.484 87.6213 116.686 87.1413 117.092 86.736C117.497 86.3307 117.977 86.128 118.532 86.128C119.086 86.128 119.566 86.3307 119.972 86.736C120.377 87.1413 120.58 87.6213 120.58 88.176C120.58 88.7307 120.377 89.2107 119.972 89.616C119.566 90.0213 119.086 90.224 118.532 90.224C117.977 90.224 117.497 90.0213 117.092 89.616C116.686 89.2107 116.484 88.7307 116.484 88.176ZM121.859 88.176C121.859 87.6213 122.061 87.1413 122.467 86.736C122.872 86.3307 123.352 86.128 123.907 86.128C124.461 86.128 124.941 86.3307 125.347 86.736C125.752 87.1413 125.955 87.6213 125.955 88.176C125.955 88.7307 125.752 89.2107 125.347 89.616C124.941 90.0213 124.461 90.224 123.907 90.224C123.352 90.224 122.872 90.0213 122.467 89.616C122.061 89.2107 121.859 88.7307 121.859 88.176ZM127.234 88.176C127.234 87.6213 127.436 87.1413 127.842 86.736C128.247 86.3307 128.727 86.128 129.282 86.128C129.836 86.128 130.316 86.3307 130.722 86.736C131.127 87.1413 131.33 87.6213 131.33 88.176C131.33 88.7307 131.127 89.2107 130.722 89.616C130.316 90.0213 129.836 90.224 129.282 90.224C128.727 90.224 128.247 90.0213 127.842 89.616C127.436 89.2107 127.234 88.7307 127.234 88.176ZM61.592 98.6C61.8907 98.6 62.04 98.7493 62.04 99.048V120.552C62.04 120.851 61.8907 121 61.592 121H58.744C58.4453 121 58.296 120.851 58.296 120.552V111.4H56.184V120.552C56.184 120.851 56.0347 121 55.736 121H52.888C52.5893 121 52.44 120.851 52.44 120.552V99.048C52.44 98.7493 52.5893 98.6 52.888 98.6H55.736C56.0347 98.6 56.184 98.7493 56.184 99.048V107.656H58.296V99.048C58.296 98.7493 58.4453 98.6 58.744 98.6H61.592ZM74.6368 101.8C74.7648 101.8 74.8608 101.853 74.9248 101.96C74.9888 102.045 74.9994 102.141 74.9568 102.248L71.2768 113.576V120.552C71.2768 120.851 71.1274 121 70.8288 121H67.9488C67.6501 121 67.5008 120.851 67.5008 120.552V113.576L63.8208 102.248C63.7781 102.141 63.7888 102.045 63.8528 101.96C63.9168 101.853 64.0128 101.8 64.1408 101.8H67.5328C67.8314 101.8 68.0021 101.949 68.0448 102.248L69.3248 108.392H69.4528L70.7328 102.248C70.7754 101.949 70.9461 101.8 71.2448 101.8H74.6368ZM82.0005 101.8C82.5552 101.8 83.0778 101.907 83.5685 102.12C84.0592 102.333 84.4858 102.621 84.8485 102.984C85.2112 103.347 85.4992 103.773 85.7125 104.264C85.9258 104.755 86.0325 105.277 86.0325 105.832V110.088C86.0325 110.643 85.9258 111.165 85.7125 111.656C85.4992 112.147 85.2112 112.573 84.8485 112.936C84.4858 113.299 84.0592 113.587 83.5685 113.8C83.0778 114.013 82.5552 114.12 82.0005 114.12H80.4965V120.552C80.4965 120.851 80.3472 121 80.0485 121H77.2005C76.9018 121 76.7525 120.851 76.7525 120.552V102.248C76.7525 101.949 76.9018 101.8 77.2005 101.8H82.0005ZM82.2885 105.992C82.2885 105.779 82.2138 105.597 82.0645 105.448C81.9152 105.299 81.7338 105.224 81.5205 105.224H80.4965V110.696H81.5205C81.7338 110.696 81.9152 110.621 82.0645 110.472C82.2138 110.323 82.2885 110.141 82.2885 109.928V105.992ZM97.0875 117.192C97.0875 117.747 96.9808 118.269 96.7675 118.76C96.5542 119.251 96.2662 119.677 95.9035 120.04C95.5408 120.403 95.1142 120.691 94.6235 120.904C94.1328 121.117 93.6102 121.224 93.0555 121.224H91.8395C91.2848 121.224 90.7622 121.117 90.2715 120.904C89.7808 120.691 89.3542 120.403 88.9915 120.04C88.6288 119.677 88.3408 119.251 88.1275 118.76C87.9142 118.269 87.8075 117.747 87.8075 117.192V105.608C87.8075 105.053 87.9142 104.531 88.1275 104.04C88.3408 103.549 88.6288 103.123 88.9915 102.76C89.3542 102.397 89.7808 102.109 90.2715 101.896C90.7622 101.683 91.2848 101.576 91.8395 101.576H93.0555C93.6102 101.576 94.1328 101.683 94.6235 101.896C95.1142 102.109 95.5408 102.397 95.9035 102.76C96.2662 103.123 96.5542 103.549 96.7675 104.04C96.9808 104.531 97.0875 105.053 97.0875 105.608V117.192ZM93.3435 105.768C93.3435 105.555 93.2688 105.373 93.1195 105.224C92.9702 105.075 92.7888 105 92.5755 105H92.3195C92.1062 105 91.9248 105.075 91.7755 105.224C91.6262 105.373 91.5515 105.555 91.5515 105.768V117.032C91.5515 117.245 91.6262 117.427 91.7755 117.576C91.9248 117.725 92.1062 117.8 92.3195 117.8H92.5755C92.7888 117.8 92.9702 117.725 93.1195 117.576C93.2688 117.427 93.3435 117.245 93.3435 117.032V105.768ZM107.254 101.8C107.553 101.8 107.702 101.949 107.702 102.248V105.096C107.702 105.395 107.553 105.544 107.254 105.544H104.982V120.552C104.982 120.851 104.833 121 104.534 121H101.686C101.579 121 101.473 120.957 101.366 120.872C101.281 120.787 101.238 120.68 101.238 120.552V105.544H98.998C98.6993 105.544 98.55 105.395 98.55 105.096V102.248C98.55 101.949 98.6993 101.8 98.998 101.8H107.254ZM118.623 101.8C118.922 101.8 119.071 101.949 119.071 102.248V120.552C119.071 120.851 118.922 121 118.623 121H115.775C115.477 121 115.327 120.851 115.327 120.552V113.32H113.215V120.552C113.215 120.851 113.066 121 112.767 121H109.919C109.621 121 109.471 120.851 109.471 120.552V102.248C109.471 101.949 109.621 101.8 109.919 101.8H112.767C113.066 101.8 113.215 101.949 113.215 102.248V109.576H115.327V102.248C115.327 101.949 115.477 101.8 115.775 101.8H118.623ZM129.332 117.256C129.631 117.256 129.78 117.405 129.78 117.704V120.552C129.78 120.851 129.631 121 129.332 121H122.388C122.089 121 121.94 120.851 121.94 120.552V102.248C121.94 101.949 122.089 101.8 122.388 101.8H129.332C129.631 101.8 129.78 101.949 129.78 102.248V105.096C129.78 105.395 129.631 105.544 129.332 105.544H125.684V109.192H128.852C129.151 109.192 129.3 109.341 129.3 109.64V112.488C129.3 112.787 129.151 112.936 128.852 112.936H125.684V117.256H129.332ZM140.567 101.8C140.865 101.8 141.015 101.949 141.015 102.248V105.096C141.015 105.395 140.865 105.544 140.567 105.544H138.295V120.552C138.295 120.851 138.145 121 137.847 121H134.999C134.892 121 134.785 120.957 134.679 120.872C134.593 120.787 134.551 120.68 134.551 120.552V105.544H132.311C132.012 105.544 131.863 105.395 131.863 105.096V102.248C131.863 101.949 132.012 101.8 132.311 101.8H140.567ZM146.997 120.552C146.997 120.851 146.847 121 146.549 121H143.701C143.402 121 143.253 120.851 143.253 120.552V102.248C143.253 101.949 143.402 101.8 143.701 101.8H146.549C146.847 101.8 146.997 101.949 146.997 102.248V120.552ZM154.806 101.576C155.36 101.576 155.883 101.683 156.374 101.896C156.864 102.109 157.291 102.397 157.654 102.76C158.016 103.123 158.304 103.549 158.518 104.04C158.731 104.531 158.838 105.053 158.838 105.608V107.528C158.838 107.827 158.699 108.019 158.422 108.104L155.51 108.552C155.232 108.637 155.094 108.531 155.094 108.232V105.768C155.094 105.555 155.019 105.373 154.87 105.224C154.72 105.075 154.539 105 154.326 105H154.07C153.856 105 153.675 105.075 153.526 105.224C153.376 105.373 153.302 105.555 153.302 105.768V117.032C153.302 117.245 153.376 117.427 153.526 117.576C153.675 117.725 153.856 117.8 154.07 117.8H154.326C154.539 117.8 154.72 117.725 154.87 117.576C155.019 117.427 155.094 117.245 155.094 117.032V113.192C155.094 112.893 155.232 112.787 155.51 112.872L158.422 113.256C158.699 113.341 158.838 113.533 158.838 113.832V117.192C158.838 117.747 158.731 118.269 158.518 118.76C158.304 119.251 158.016 119.677 157.654 120.04C157.291 120.403 156.864 120.691 156.374 120.904C155.883 121.117 155.36 121.224 154.806 121.224H153.59C153.035 121.224 152.512 121.117 152.022 120.904C151.531 120.691 151.104 120.403 150.742 120.04C150.379 119.677 150.091 119.251 149.878 118.76C149.664 118.269 149.558 117.747 149.558 117.192V105.608C149.558 105.053 149.664 104.531 149.878 104.04C150.091 103.549 150.379 103.123 150.742 102.76C151.104 102.397 151.531 102.109 152.022 101.896C152.512 101.683 153.035 101.576 153.59 101.576H154.806ZM170.533 120.552C170.575 120.851 170.447 121 170.149 121H167.237C166.959 121 166.799 120.851 166.757 120.552L166.501 117.416H164.516L164.261 120.552C164.218 120.851 164.058 121 163.781 121H160.868C160.57 121 160.442 120.851 160.485 120.552L162.885 102.248C162.927 101.949 163.098 101.8 163.397 101.8H167.621C167.919 101.8 168.09 101.949 168.133 102.248L170.533 120.552ZM166.245 113.832L165.637 106.76H165.381L164.773 113.832H166.245ZM180.531 117.256C180.829 117.256 180.979 117.405 180.979 117.704V120.552C180.979 120.851 180.829 121 180.531 121H176.211H176.147H176.115H173.267C172.968 121 172.819 120.851 172.819 120.552V102.248C172.819 101.949 172.968 101.8 173.267 101.8H176.115C176.413 101.8 176.563 101.949 176.563 102.248V117.256H180.531ZM191.093 117.256C191.392 117.256 191.541 117.405 191.541 117.704V120.552C191.541 120.851 191.392 121 191.093 121H186.773H186.709H186.677H183.829C183.531 121 183.381 120.851 183.381 120.552V102.248C183.381 101.949 183.531 101.8 183.829 101.8H186.677C186.976 101.8 187.125 101.949 187.125 102.248V117.256H191.093ZM201.918 101.8C202.046 101.8 202.142 101.853 202.206 101.96C202.27 102.045 202.281 102.141 202.238 102.248L198.558 113.576V120.552C198.558 120.851 198.409 121 198.11 121H195.23C194.931 121 194.782 120.851 194.782 120.552V113.576L191.102 102.248C191.059 102.141 191.07 102.045 191.134 101.96C191.198 101.853 191.294 101.8 191.422 101.8H194.814C195.113 101.8 195.283 101.949 195.326 102.248L196.606 108.392H196.734L198.014 102.248C198.057 101.949 198.227 101.8 198.526 101.8H201.918Z" fill="black"/>
</svg>
