<svg width="276" height="191" viewBox="0 0 276 191" fill="none" xmlns="http://www.w3.org/2000/svg">
<g filter="url(#filter0_d)">
<rect x="1" y="1" width="252" height="167" rx="41" fill="white" stroke="black" stroke-width="2"/>
<path d="M57.392 81L52.52 73.752V81H47.888V65.904H52.544L57.104 73.464V65.904H61.688V81H57.392ZM60.392 67.824C60.392 67.568 60.304 67.352 60.128 67.176C59.952 66.984 59.728 66.888 59.456 66.888C59.2 66.888 58.976 66.984 58.784 67.176C58.608 67.352 58.52 67.568 58.52 67.824C58.52 68.08 58.608 68.296 58.784 68.472C58.976 68.648 59.2 68.736 59.456 68.736C59.728 68.736 59.952 68.648 60.128 68.472C60.304 68.296 60.392 68.08 60.392 67.824ZM60.392 70.032C60.392 69.776 60.304 69.56 60.128 69.384C59.952 69.192 59.728 69.096 59.456 69.096C59.2 69.096 58.976 69.192 58.784 69.384C58.608 69.56 58.52 69.776 58.52 70.032C58.52 70.304 58.608 70.528 58.784 70.704C58.976 70.88 59.2 70.968 59.456 70.968C59.728 70.968 59.952 70.88 60.128 70.704C60.304 70.528 60.392 70.304 60.392 70.032ZM60.392 72.264C60.392 71.992 60.304 71.776 60.128 71.616C59.952 71.44 59.728 71.352 59.456 71.352C59.2 71.352 58.976 71.44 58.784 71.616C58.608 71.776 58.52 71.992 58.52 72.264C58.52 72.52 58.608 72.744 58.784 72.936C58.976 73.112 59.2 73.2 59.456 73.2C59.728 73.2 59.952 73.112 60.128 72.936C60.304 72.744 60.392 72.52 60.392 72.264ZM60.392 74.496C60.392 74.24 60.304 74.024 60.128 73.848C59.952 73.656 59.728 73.56 59.456 73.56C59.2 73.56 58.976 73.656 58.784 73.848C58.608 74.024 58.52 74.24 58.52 74.496C58.52 74.752 58.608 74.968 58.784 75.144C58.976 75.32 59.2 75.408 59.456 75.408C59.728 75.408 59.952 75.32 60.128 75.144C60.304 74.968 60.392 74.752 60.392 74.496ZM52.112 70.104C52.368 70.104 52.584 70.016 52.76 69.84C52.936 69.648 53.024 69.424 53.024 69.168C53.024 68.912 52.936 68.696 52.76 68.52C52.584 68.328 52.368 68.232 52.112 68.232C51.856 68.232 51.632 68.328 51.44 68.52C51.264 68.696 51.176 68.912 51.176 69.168C51.176 69.408 51.264 69.624 51.44 69.816C51.632 70.008 51.856 70.104 52.112 70.104ZM60.392 76.704C60.392 76.448 60.304 76.232 60.128 76.056C59.952 75.864 59.728 75.768 59.456 75.768C59.2 75.768 58.976 75.864 58.784 76.056C58.608 76.232 58.52 76.448 58.52 76.704C58.52 76.976 58.608 77.2 58.784 77.376C58.976 77.552 59.2 77.64 59.456 77.64C59.728 77.64 59.952 77.552 60.128 77.376C60.304 77.2 60.392 76.976 60.392 76.704ZM51.104 67.824C51.104 67.568 51.016 67.352 50.84 67.176C50.68 66.984 50.464 66.888 50.192 66.888C49.936 66.888 49.712 66.984 49.52 67.176C49.344 67.352 49.256 67.568 49.256 67.824C49.256 68.08 49.344 68.296 49.52 68.472C49.712 68.648 49.936 68.736 50.192 68.736C50.464 68.736 50.68 68.648 50.84 68.472C51.016 68.296 51.104 68.08 51.104 67.824ZM54.224 71.232C54.224 70.976 54.128 70.76 53.936 70.584C53.76 70.408 53.544 70.32 53.288 70.32C53.032 70.32 52.808 70.408 52.616 70.584C52.44 70.76 52.352 70.976 52.352 71.232C52.352 71.488 52.44 71.712 52.616 71.904C52.808 72.08 53.032 72.168 53.288 72.168C53.544 72.168 53.76 72.08 53.936 71.904C54.128 71.712 54.224 71.488 54.224 71.232ZM55.592 73.296C55.592 73.056 55.496 72.84 55.304 72.648C55.112 72.456 54.896 72.36 54.656 72.36C54.4 72.36 54.184 72.456 54.008 72.648C53.832 72.824 53.744 73.04 53.744 73.296C53.744 73.568 53.832 73.792 54.008 73.968C54.184 74.144 54.4 74.232 54.656 74.232C54.912 74.232 55.128 74.144 55.304 73.968C55.496 73.792 55.592 73.568 55.592 73.296ZM57.128 75.552C57.128 75.296 57.04 75.08 56.864 74.904C56.688 74.728 56.464 74.64 56.192 74.64C55.952 74.64 55.736 74.736 55.544 74.928C55.352 75.104 55.256 75.312 55.256 75.552C55.256 75.824 55.344 76.048 55.52 76.224C55.712 76.4 55.936 76.488 56.192 76.488C56.464 76.488 56.688 76.4 56.864 76.224C57.04 76.048 57.128 75.824 57.128 75.552ZM60.392 78.936C60.392 78.68 60.304 78.464 60.128 78.288C59.952 78.112 59.728 78.024 59.456 78.024C59.2 78.024 58.976 78.112 58.784 78.288C58.608 78.464 58.52 78.68 58.52 78.936C58.52 79.192 58.608 79.416 58.784 79.608C58.976 79.784 59.2 79.872 59.456 79.872C59.728 79.872 59.952 79.784 60.128 79.608C60.304 79.416 60.392 79.192 60.392 78.936ZM50.192 70.968C50.464 70.968 50.68 70.88 50.84 70.704C51.016 70.528 51.104 70.304 51.104 70.032C51.104 69.776 51.016 69.56 50.84 69.384C50.68 69.192 50.464 69.096 50.192 69.096C49.936 69.096 49.712 69.192 49.52 69.384C49.344 69.56 49.256 69.776 49.256 70.032C49.256 70.304 49.344 70.528 49.52 70.704C49.712 70.88 49.936 70.968 50.192 70.968ZM58.496 77.448C58.496 77.192 58.408 76.976 58.232 76.8C58.056 76.624 57.832 76.536 57.56 76.536C57.304 76.536 57.088 76.624 56.912 76.8C56.736 76.976 56.648 77.192 56.648 77.448C56.648 77.72 56.736 77.944 56.912 78.12C57.088 78.296 57.304 78.384 57.56 78.384C57.816 78.384 58.032 78.296 58.208 78.12C58.4 77.928 58.496 77.704 58.496 77.448ZM50.192 73.2C50.464 73.2 50.68 73.112 50.84 72.936C51.016 72.744 51.104 72.52 51.104 72.264C51.104 71.992 51.016 71.776 50.84 71.616C50.68 71.44 50.464 71.352 50.192 71.352C49.936 71.352 49.712 71.44 49.52 71.616C49.344 71.776 49.256 71.992 49.256 72.264C49.256 72.52 49.344 72.744 49.52 72.936C49.712 73.112 49.936 73.2 50.192 73.2ZM51.104 74.496C51.104 74.24 51.016 74.024 50.84 73.848C50.68 73.656 50.464 73.56 50.192 73.56C49.936 73.56 49.712 73.656 49.52 73.848C49.344 74.024 49.256 74.24 49.256 74.496C49.256 74.752 49.344 74.968 49.52 75.144C49.712 75.32 49.936 75.408 50.192 75.408C50.464 75.408 50.68 75.32 50.84 75.144C51.016 74.968 51.104 74.752 51.104 74.496ZM50.192 77.64C50.464 77.64 50.68 77.552 50.84 77.376C51.016 77.2 51.104 76.976 51.104 76.704C51.104 76.448 51.016 76.232 50.84 76.056C50.68 75.864 50.464 75.768 50.192 75.768C49.936 75.768 49.712 75.864 49.52 76.056C49.344 76.232 49.256 76.448 49.256 76.704C49.256 76.976 49.344 77.2 49.52 77.376C49.712 77.552 49.936 77.64 50.192 77.64ZM50.192 79.872C50.464 79.872 50.68 79.784 50.84 79.608C51.016 79.416 51.104 79.192 51.104 78.936C51.104 78.68 51.016 78.464 50.84 78.288C50.68 78.112 50.464 78.024 50.192 78.024C49.936 78.024 49.712 78.112 49.52 78.288C49.344 78.464 49.256 78.68 49.256 78.936C49.256 79.192 49.344 79.416 49.52 79.608C49.712 79.784 49.936 79.872 50.192 79.872ZM63.4739 81V65.904H72.5219V69.72H68.1539V71.472H72.5219V75.288H68.1539V77.04H72.5219V81H63.4739ZM71.1539 67.824C71.1539 67.568 71.0579 67.352 70.8659 67.176C70.6899 66.984 70.4739 66.888 70.2179 66.888C69.9619 66.888 69.7459 66.984 69.5699 67.176C69.3939 67.352 69.3059 67.568 69.3059 67.824C69.3059 68.08 69.3939 68.296 69.5699 68.472C69.7459 68.648 69.9619 68.736 70.2179 68.736C70.4739 68.736 70.6899 68.648 70.8659 68.472C71.0579 68.296 71.1539 68.08 71.1539 67.824ZM68.9459 67.824C68.9459 67.568 68.8499 67.352 68.6579 67.176C68.4819 66.984 68.2659 66.888 68.0099 66.888C67.7379 66.888 67.5139 66.984 67.3379 67.176C67.1619 67.352 67.0739 67.568 67.0739 67.824C67.0739 68.08 67.1619 68.296 67.3379 68.472C67.5139 68.648 67.7379 68.736 68.0099 68.736C68.2659 68.736 68.4819 68.648 68.6579 68.472C68.8499 68.296 68.9459 68.08 68.9459 67.824ZM66.6899 67.824C66.6899 67.568 66.6019 67.352 66.4259 67.176C66.2659 66.984 66.0499 66.888 65.7779 66.888C65.5219 66.888 65.2979 66.984 65.1059 67.176C64.9299 67.352 64.8419 67.568 64.8419 67.824C64.8419 68.08 64.9299 68.296 65.1059 68.472C65.2979 68.648 65.5219 68.736 65.7779 68.736C66.0499 68.736 66.2659 68.648 66.4259 68.472C66.6019 68.296 66.6899 68.08 66.6899 67.824ZM71.1539 73.368C71.1539 73.112 71.0579 72.896 70.8659 72.72C70.6899 72.544 70.4739 72.456 70.2179 72.456C69.9619 72.456 69.7459 72.544 69.5699 72.72C69.3939 72.896 69.3059 73.112 69.3059 73.368C69.3059 73.624 69.3939 73.848 69.5699 74.04C69.7459 74.216 69.9619 74.304 70.2179 74.304C70.4739 74.304 70.6899 74.216 70.8659 74.04C71.0579 73.848 71.1539 73.624 71.1539 73.368ZM65.7779 70.968C66.0499 70.968 66.2659 70.88 66.4259 70.704C66.6019 70.528 66.6899 70.304 66.6899 70.032C66.6899 69.776 66.6019 69.56 66.4259 69.384C66.2659 69.192 66.0499 69.096 65.7779 69.096C65.5219 69.096 65.2979 69.192 65.1059 69.384C64.9299 69.56 64.8419 69.776 64.8419 70.032C64.8419 70.304 64.9299 70.528 65.1059 70.704C65.2979 70.88 65.5219 70.968 65.7779 70.968ZM68.9459 73.368C68.9459 73.112 68.8499 72.896 68.6579 72.72C68.4819 72.544 68.2659 72.456 68.0099 72.456C67.7379 72.456 67.5139 72.544 67.3379 72.72C67.1619 72.896 67.0739 73.112 67.0739 73.368C67.0739 73.624 67.1619 73.848 67.3379 74.04C67.5139 74.216 67.7379 74.304 68.0099 74.304C68.2659 74.304 68.4819 74.216 68.6579 74.04C68.8499 73.848 68.9459 73.624 68.9459 73.368ZM65.7779 73.2C66.0499 73.2 66.2659 73.112 66.4259 72.936C66.6019 72.744 66.6899 72.52 66.6899 72.264C66.6899 71.992 66.6019 71.776 66.4259 71.616C66.2659 71.44 66.0499 71.352 65.7779 71.352C65.5219 71.352 65.2979 71.44 65.1059 71.616C64.9299 71.776 64.8419 71.992 64.8419 72.264C64.8419 72.52 64.9299 72.744 65.1059 72.936C65.2979 73.112 65.5219 73.2 65.7779 73.2ZM66.6899 74.496C66.6899 74.24 66.6019 74.024 66.4259 73.848C66.2659 73.656 66.0499 73.56 65.7779 73.56C65.5219 73.56 65.2979 73.656 65.1059 73.848C64.9299 74.024 64.8419 74.24 64.8419 74.496C64.8419 74.752 64.9299 74.968 65.1059 75.144C65.2979 75.32 65.5219 75.408 65.7779 75.408C66.0499 75.408 66.2659 75.32 66.4259 75.144C66.6019 74.968 66.6899 74.752 66.6899 74.496ZM71.1539 78.936C71.1539 78.68 71.0579 78.464 70.8659 78.288C70.6899 78.112 70.4739 78.024 70.2179 78.024C69.9619 78.024 69.7459 78.112 69.5699 78.288C69.3939 78.464 69.3059 78.68 69.3059 78.936C69.3059 79.192 69.3939 79.416 69.5699 79.608C69.7459 79.784 69.9619 79.872 70.2179 79.872C70.4739 79.872 70.6899 79.784 70.8659 79.608C71.0579 79.416 71.1539 79.192 71.1539 78.936ZM65.7779 77.64C66.0499 77.64 66.2659 77.552 66.4259 77.376C66.6019 77.2 66.6899 76.976 66.6899 76.704C66.6899 76.448 66.6019 76.232 66.4259 76.056C66.2659 75.864 66.0499 75.768 65.7779 75.768C65.5219 75.768 65.2979 75.864 65.1059 76.056C64.9299 76.232 64.8419 76.448 64.8419 76.704C64.8419 76.976 64.9299 77.2 65.1059 77.376C65.2979 77.552 65.5219 77.64 65.7779 77.64ZM68.9459 78.936C68.9459 78.68 68.8499 78.464 68.6579 78.288C68.4819 78.112 68.2659 78.024 68.0099 78.024C67.7379 78.024 67.5139 78.112 67.3379 78.288C67.1619 78.464 67.0739 78.68 67.0739 78.936C67.0739 79.192 67.1619 79.416 67.3379 79.608C67.5139 79.784 67.7379 79.872 68.0099 79.872C68.2659 79.872 68.4819 79.784 68.6579 79.608C68.8499 79.416 68.9459 79.192 68.9459 78.936ZM65.7779 79.872C66.0499 79.872 66.2659 79.784 66.4259 79.608C66.6019 79.416 66.6899 79.192 66.6899 78.936C66.6899 78.68 66.6019 78.464 66.4259 78.288C66.2659 78.112 66.0499 78.024 65.7779 78.024C65.5219 78.024 65.2979 78.112 65.1059 78.288C64.9299 78.464 64.8419 78.68 64.8419 78.936C64.8419 79.192 64.9299 79.416 65.1059 79.608C65.2979 79.784 65.5219 79.872 65.7779 79.872ZM77.594 81V69.84H73.658V65.904H86.186V69.84H82.25V81H77.594ZM85.346 67.824C85.346 67.568 85.25 67.352 85.058 67.176C84.882 66.984 84.666 66.888 84.41 66.888C84.138 66.888 83.914 66.984 83.738 67.176C83.578 67.352 83.498 67.568 83.498 67.824C83.498 68.08 83.578 68.296 83.738 68.472C83.914 68.648 84.138 68.736 84.41 68.736C84.666 68.736 84.882 68.648 85.058 68.472C85.25 68.296 85.346 68.08 85.346 67.824ZM83.114 67.824C83.114 67.568 83.018 67.352 82.826 67.176C82.65 66.984 82.434 66.888 82.178 66.888C81.922 66.888 81.698 66.984 81.506 67.176C81.33 67.352 81.242 67.568 81.242 67.824C81.242 68.08 81.33 68.296 81.506 68.472C81.698 68.648 81.922 68.736 82.178 68.736C82.434 68.736 82.65 68.648 82.826 68.472C83.018 68.296 83.114 68.08 83.114 67.824ZM80.882 67.824C80.882 67.568 80.794 67.352 80.618 67.176C80.442 66.984 80.226 66.888 79.97 66.888C79.698 66.888 79.474 66.984 79.298 67.176C79.122 67.352 79.034 67.568 79.034 67.824C79.034 68.08 79.122 68.296 79.298 68.472C79.474 68.648 79.698 68.736 79.97 68.736C80.226 68.736 80.442 68.648 80.618 68.472C80.794 68.296 80.882 68.08 80.882 67.824ZM78.65 67.824C78.65 67.568 78.562 67.352 78.386 67.176C78.21 66.984 77.986 66.888 77.714 66.888C77.458 66.888 77.242 66.984 77.066 67.176C76.89 67.352 76.802 67.568 76.802 67.824C76.802 68.08 76.89 68.296 77.066 68.472C77.242 68.648 77.458 68.736 77.714 68.736C77.986 68.736 78.21 68.648 78.386 68.472C78.562 68.296 78.65 68.08 78.65 67.824ZM79.97 70.968C80.226 70.968 80.442 70.88 80.618 70.704C80.794 70.528 80.882 70.304 80.882 70.032C80.882 69.776 80.794 69.56 80.618 69.384C80.442 69.192 80.226 69.096 79.97 69.096C79.698 69.096 79.474 69.192 79.298 69.384C79.122 69.56 79.034 69.776 79.034 70.032C79.034 70.304 79.122 70.528 79.298 70.704C79.474 70.88 79.698 70.968 79.97 70.968ZM76.442 67.824C76.442 67.568 76.346 67.352 76.154 67.176C75.978 66.984 75.762 66.888 75.506 66.888C75.25 66.888 75.026 66.984 74.834 67.176C74.658 67.352 74.57 67.568 74.57 67.824C74.57 68.08 74.658 68.296 74.834 68.472C75.026 68.648 75.25 68.736 75.506 68.736C75.762 68.736 75.978 68.648 76.154 68.472C76.346 68.296 76.442 68.08 76.442 67.824ZM79.97 73.2C80.226 73.2 80.442 73.112 80.618 72.936C80.794 72.744 80.882 72.52 80.882 72.264C80.882 71.992 80.794 71.776 80.618 71.616C80.442 71.44 80.226 71.352 79.97 71.352C79.698 71.352 79.474 71.44 79.298 71.616C79.122 71.776 79.034 71.992 79.034 72.264C79.034 72.52 79.122 72.744 79.298 72.936C79.474 73.112 79.698 73.2 79.97 73.2ZM80.882 74.496C80.882 74.24 80.794 74.024 80.618 73.848C80.442 73.656 80.226 73.56 79.97 73.56C79.698 73.56 79.474 73.656 79.298 73.848C79.122 74.024 79.034 74.24 79.034 74.496C79.034 74.752 79.122 74.968 79.298 75.144C79.474 75.32 79.698 75.408 79.97 75.408C80.226 75.408 80.442 75.32 80.618 75.144C80.794 74.968 80.882 74.752 80.882 74.496ZM79.97 77.64C80.226 77.64 80.442 77.552 80.618 77.376C80.794 77.2 80.882 76.976 80.882 76.704C80.882 76.448 80.794 76.232 80.618 76.056C80.442 75.864 80.226 75.768 79.97 75.768C79.698 75.768 79.474 75.864 79.298 76.056C79.122 76.232 79.034 76.448 79.034 76.704C79.034 76.976 79.122 77.2 79.298 77.376C79.474 77.552 79.698 77.64 79.97 77.64ZM79.97 79.872C80.226 79.872 80.442 79.784 80.618 79.608C80.794 79.416 80.882 79.192 80.882 78.936C80.882 78.68 80.794 78.464 80.618 78.288C80.442 78.112 80.226 78.024 79.97 78.024C79.698 78.024 79.474 78.112 79.298 78.288C79.122 78.464 79.034 78.68 79.034 78.936C79.034 79.192 79.122 79.416 79.298 79.608C79.474 79.784 79.698 79.872 79.97 79.872ZM87.4739 81V65.904H96.5219V69.72H92.1539V71.472H96.5219V75.288H92.1539V81H87.4739ZM95.1539 67.824C95.1539 67.568 95.0579 67.352 94.8659 67.176C94.6899 66.984 94.4739 66.888 94.2179 66.888C93.9619 66.888 93.7459 66.984 93.5699 67.176C93.3939 67.352 93.3059 67.568 93.3059 67.824C93.3059 68.08 93.3939 68.296 93.5699 68.472C93.7459 68.648 93.9619 68.736 94.2179 68.736C94.4739 68.736 94.6899 68.648 94.8659 68.472C95.0579 68.296 95.1539 68.08 95.1539 67.824ZM92.9459 67.824C92.9459 67.568 92.8499 67.352 92.6579 67.176C92.4819 66.984 92.2659 66.888 92.0099 66.888C91.7379 66.888 91.5139 66.984 91.3379 67.176C91.1619 67.352 91.0739 67.568 91.0739 67.824C91.0739 68.08 91.1619 68.296 91.3379 68.472C91.5139 68.648 91.7379 68.736 92.0099 68.736C92.2659 68.736 92.4819 68.648 92.6579 68.472C92.8499 68.296 92.9459 68.08 92.9459 67.824ZM90.6899 67.824C90.6899 67.568 90.6019 67.352 90.4259 67.176C90.2659 66.984 90.0499 66.888 89.7779 66.888C89.5219 66.888 89.2979 66.984 89.1059 67.176C88.9299 67.352 88.8419 67.568 88.8419 67.824C88.8419 68.08 88.9299 68.296 89.1059 68.472C89.2979 68.648 89.5219 68.736 89.7779 68.736C90.0499 68.736 90.2659 68.648 90.4259 68.472C90.6019 68.296 90.6899 68.08 90.6899 67.824ZM95.1539 73.368C95.1539 73.112 95.0579 72.896 94.8659 72.72C94.6899 72.544 94.4739 72.456 94.2179 72.456C93.9619 72.456 93.7459 72.544 93.5699 72.72C93.3939 72.896 93.3059 73.112 93.3059 73.368C93.3059 73.624 93.3939 73.848 93.5699 74.04C93.7459 74.216 93.9619 74.304 94.2179 74.304C94.4739 74.304 94.6899 74.216 94.8659 74.04C95.0579 73.848 95.1539 73.624 95.1539 73.368ZM89.7779 70.968C90.0499 70.968 90.2659 70.88 90.4259 70.704C90.6019 70.528 90.6899 70.304 90.6899 70.032C90.6899 69.776 90.6019 69.56 90.4259 69.384C90.2659 69.192 90.0499 69.096 89.7779 69.096C89.5219 69.096 89.2979 69.192 89.1059 69.384C88.9299 69.56 88.8419 69.776 88.8419 70.032C88.8419 70.304 88.9299 70.528 89.1059 70.704C89.2979 70.88 89.5219 70.968 89.7779 70.968ZM92.9459 73.368C92.9459 73.112 92.8499 72.896 92.6579 72.72C92.4819 72.544 92.2659 72.456 92.0099 72.456C91.7379 72.456 91.5139 72.544 91.3379 72.72C91.1619 72.896 91.0739 73.112 91.0739 73.368C91.0739 73.624 91.1619 73.848 91.3379 74.04C91.5139 74.216 91.7379 74.304 92.0099 74.304C92.2659 74.304 92.4819 74.216 92.6579 74.04C92.8499 73.848 92.9459 73.624 92.9459 73.368ZM89.7779 73.2C90.0499 73.2 90.2659 73.112 90.4259 72.936C90.6019 72.744 90.6899 72.52 90.6899 72.264C90.6899 71.992 90.6019 71.776 90.4259 71.616C90.2659 71.44 90.0499 71.352 89.7779 71.352C89.5219 71.352 89.2979 71.44 89.1059 71.616C88.9299 71.776 88.8419 71.992 88.8419 72.264C88.8419 72.52 88.9299 72.744 89.1059 72.936C89.2979 73.112 89.5219 73.2 89.7779 73.2ZM90.6899 74.496C90.6899 74.24 90.6019 74.024 90.4259 73.848C90.2659 73.656 90.0499 73.56 89.7779 73.56C89.5219 73.56 89.2979 73.656 89.1059 73.848C88.9299 74.024 88.8419 74.24 88.8419 74.496C88.8419 74.752 88.9299 74.968 89.1059 75.144C89.2979 75.32 89.5219 75.408 89.7779 75.408C90.0499 75.408 90.2659 75.32 90.4259 75.144C90.6019 74.968 90.6899 74.752 90.6899 74.496ZM89.7779 77.64C90.0499 77.64 90.2659 77.552 90.4259 77.376C90.6019 77.2 90.6899 76.976 90.6899 76.704C90.6899 76.448 90.6019 76.232 90.4259 76.056C90.2659 75.864 90.0499 75.768 89.7779 75.768C89.5219 75.768 89.2979 75.864 89.1059 76.056C88.9299 76.232 88.8419 76.448 88.8419 76.704C88.8419 76.976 88.9299 77.2 89.1059 77.376C89.2979 77.552 89.5219 77.64 89.7779 77.64ZM89.7779 79.872C90.0499 79.872 90.2659 79.784 90.4259 79.608C90.6019 79.416 90.6899 79.192 90.6899 78.936C90.6899 78.68 90.6019 78.464 90.4259 78.288C90.2659 78.112 90.0499 78.024 89.7779 78.024C89.5219 78.024 89.2979 78.112 89.1059 78.288C88.9299 78.464 88.8419 78.68 88.8419 78.936C88.8419 79.192 88.9299 79.416 89.1059 79.608C89.2979 79.784 89.5219 79.872 89.7779 79.872ZM97.8568 81V65.904H102.537V77.04H106.113V81H97.8568ZM101.073 67.824C101.073 67.568 100.985 67.352 100.809 67.176C100.649 66.984 100.433 66.888 100.161 66.888C99.9048 66.888 99.6808 66.984 99.4888 67.176C99.3128 67.352 99.2248 67.568 99.2248 67.824C99.2248 68.08 99.3128 68.296 99.4888 68.472C99.6808 68.648 99.9048 68.736 100.161 68.736C100.433 68.736 100.649 68.648 100.809 68.472C100.985 68.296 101.073 68.08 101.073 67.824ZM100.161 70.968C100.433 70.968 100.649 70.88 100.809 70.704C100.985 70.528 101.073 70.304 101.073 70.032C101.073 69.776 100.985 69.56 100.809 69.384C100.649 69.192 100.433 69.096 100.161 69.096C99.9048 69.096 99.6808 69.192 99.4888 69.384C99.3128 69.56 99.2248 69.776 99.2248 70.032C99.2248 70.304 99.3128 70.528 99.4888 70.704C99.6808 70.88 99.9048 70.968 100.161 70.968ZM100.161 73.2C100.433 73.2 100.649 73.112 100.809 72.936C100.985 72.744 101.073 72.52 101.073 72.264C101.073 71.992 100.985 71.776 100.809 71.616C100.649 71.44 100.433 71.352 100.161 71.352C99.9048 71.352 99.6808 71.44 99.4888 71.616C99.3128 71.776 99.2248 71.992 99.2248 72.264C99.2248 72.52 99.3128 72.744 99.4888 72.936C99.6808 73.112 99.9048 73.2 100.161 73.2ZM101.073 74.496C101.073 74.24 100.985 74.024 100.809 73.848C100.649 73.656 100.433 73.56 100.161 73.56C99.9048 73.56 99.6808 73.656 99.4888 73.848C99.3128 74.024 99.2248 74.24 99.2248 74.496C99.2248 74.752 99.3128 74.968 99.4888 75.144C99.6808 75.32 99.9048 75.408 100.161 75.408C100.433 75.408 100.649 75.32 100.809 75.144C100.985 74.968 101.073 74.752 101.073 74.496ZM105.537 78.936C105.537 78.68 105.441 78.464 105.249 78.288C105.073 78.112 104.857 78.024 104.601 78.024C104.345 78.024 104.129 78.112 103.953 78.288C103.777 78.464 103.689 78.68 103.689 78.936C103.689 79.192 103.777 79.416 103.953 79.608C104.129 79.784 104.345 79.872 104.601 79.872C104.857 79.872 105.073 79.784 105.249 79.608C105.441 79.416 105.537 79.192 105.537 78.936ZM100.161 77.64C100.433 77.64 100.649 77.552 100.809 77.376C100.985 77.2 101.073 76.976 101.073 76.704C101.073 76.448 100.985 76.232 100.809 76.056C100.649 75.864 100.433 75.768 100.161 75.768C99.9048 75.768 99.6808 75.864 99.4888 76.056C99.3128 76.232 99.2248 76.448 99.2248 76.704C99.2248 76.976 99.3128 77.2 99.4888 77.376C99.6808 77.552 99.9048 77.64 100.161 77.64ZM103.329 78.936C103.329 78.68 103.233 78.464 103.041 78.288C102.865 78.112 102.649 78.024 102.393 78.024C102.121 78.024 101.897 78.112 101.721 78.288C101.545 78.464 101.457 78.68 101.457 78.936C101.457 79.192 101.545 79.416 101.721 79.608C101.897 79.784 102.121 79.872 102.393 79.872C102.649 79.872 102.865 79.784 103.041 79.608C103.233 79.416 103.329 79.192 103.329 78.936ZM100.161 79.872C100.433 79.872 100.649 79.784 100.809 79.608C100.985 79.416 101.073 79.192 101.073 78.936C101.073 78.68 100.985 78.464 100.809 78.288C100.649 78.112 100.433 78.024 100.161 78.024C99.9048 78.024 99.6808 78.112 99.4888 78.288C99.3128 78.464 99.2248 78.68 99.2248 78.936C99.2248 79.192 99.3128 79.416 99.4888 79.608C99.6808 79.784 99.9048 79.872 100.161 79.872ZM107.372 81V65.904H112.1V81H107.372ZM110.588 67.824C110.588 67.568 110.5 67.352 110.324 67.176C110.164 66.984 109.948 66.888 109.676 66.888C109.42 66.888 109.196 66.984 109.004 67.176C108.828 67.352 108.74 67.568 108.74 67.824C108.74 68.08 108.828 68.296 109.004 68.472C109.196 68.648 109.42 68.736 109.676 68.736C109.948 68.736 110.164 68.648 110.324 68.472C110.5 68.296 110.588 68.08 110.588 67.824ZM109.676 70.968C109.948 70.968 110.164 70.88 110.324 70.704C110.5 70.528 110.588 70.304 110.588 70.032C110.588 69.776 110.5 69.56 110.324 69.384C110.164 69.192 109.948 69.096 109.676 69.096C109.42 69.096 109.196 69.192 109.004 69.384C108.828 69.56 108.74 69.776 108.74 70.032C108.74 70.304 108.828 70.528 109.004 70.704C109.196 70.88 109.42 70.968 109.676 70.968ZM109.676 73.2C109.948 73.2 110.164 73.112 110.324 72.936C110.5 72.744 110.588 72.52 110.588 72.264C110.588 71.992 110.5 71.776 110.324 71.616C110.164 71.44 109.948 71.352 109.676 71.352C109.42 71.352 109.196 71.44 109.004 71.616C108.828 71.776 108.74 71.992 108.74 72.264C108.74 72.52 108.828 72.744 109.004 72.936C109.196 73.112 109.42 73.2 109.676 73.2ZM110.588 74.496C110.588 74.24 110.5 74.024 110.324 73.848C110.164 73.656 109.948 73.56 109.676 73.56C109.42 73.56 109.196 73.656 109.004 73.848C108.828 74.024 108.74 74.24 108.74 74.496C108.74 74.752 108.828 74.968 109.004 75.144C109.196 75.32 109.42 75.408 109.676 75.408C109.948 75.408 110.164 75.32 110.324 75.144C110.5 74.968 110.588 74.752 110.588 74.496ZM109.676 77.64C109.948 77.64 110.164 77.552 110.324 77.376C110.5 77.2 110.588 76.976 110.588 76.704C110.588 76.448 110.5 76.232 110.324 76.056C110.164 75.864 109.948 75.768 109.676 75.768C109.42 75.768 109.196 75.864 109.004 76.056C108.828 76.232 108.74 76.448 108.74 76.704C108.74 76.976 108.828 77.2 109.004 77.376C109.196 77.552 109.42 77.64 109.676 77.64ZM109.676 79.872C109.948 79.872 110.164 79.784 110.324 79.608C110.5 79.416 110.588 79.192 110.588 78.936C110.588 78.68 110.5 78.464 110.324 78.288C110.164 78.112 109.948 78.024 109.676 78.024C109.42 78.024 109.196 78.112 109.004 78.288C108.828 78.464 108.74 78.68 108.74 78.936C108.74 79.192 108.828 79.416 109.004 79.608C109.196 79.784 109.42 79.872 109.676 79.872ZM122.408 81L120.416 76.824L118.472 81H113.096L117.704 72.936L113.6 65.904H119L120.56 69.144L122.072 65.904H127.424L123.272 72.936L127.856 81H122.408ZM123.872 68.4C124.144 68.4 124.36 68.312 124.52 68.136C124.696 67.96 124.784 67.736 124.784 67.464C124.784 67.224 124.696 67.016 124.52 66.84C124.344 66.648 124.128 66.552 123.872 66.552C123.616 66.552 123.392 66.64 123.2 66.816C123.024 66.992 122.936 67.208 122.936 67.464C122.936 67.736 123.024 67.96 123.2 68.136C123.392 68.312 123.616 68.4 123.872 68.4ZM123.752 69.384C123.752 69.128 123.656 68.912 123.464 68.736C123.288 68.56 123.072 68.472 122.816 68.472C122.56 68.472 122.336 68.56 122.144 68.736C121.968 68.912 121.88 69.128 121.88 69.384C121.88 69.64 121.968 69.864 122.144 70.056C122.336 70.232 122.56 70.32 122.816 70.32C123.072 70.32 123.288 70.232 123.464 70.056C123.656 69.864 123.752 69.64 123.752 69.384ZM122.48 71.304C122.48 71.048 122.392 70.832 122.216 70.656C122.04 70.464 121.816 70.368 121.544 70.368C121.288 70.368 121.072 70.464 120.896 70.656C120.72 70.832 120.632 71.048 120.632 71.304C120.632 71.56 120.72 71.784 120.896 71.976C121.072 72.152 121.288 72.24 121.544 72.24C121.816 72.24 122.04 72.152 122.216 71.976C122.392 71.784 122.48 71.56 122.48 71.304ZM117.944 67.464C117.944 67.208 117.848 66.992 117.656 66.816C117.48 66.64 117.264 66.552 117.008 66.552C116.752 66.552 116.536 66.64 116.36 66.816C116.184 66.992 116.096 67.208 116.096 67.464C116.096 67.736 116.184 67.96 116.36 68.136C116.536 68.312 116.752 68.4 117.008 68.4C117.264 68.4 117.48 68.312 117.656 68.136C117.848 67.96 117.944 67.736 117.944 67.464ZM119.048 69.384C119.048 69.128 118.96 68.912 118.784 68.736C118.608 68.56 118.384 68.472 118.112 68.472C117.856 68.472 117.64 68.56 117.464 68.736C117.288 68.912 117.2 69.128 117.2 69.384C117.2 69.64 117.288 69.864 117.464 70.056C117.64 70.232 117.856 70.32 118.112 70.32C118.384 70.32 118.608 70.232 118.784 70.056C118.96 69.864 119.048 69.64 119.048 69.384ZM120.368 71.304C120.368 71.048 120.272 70.832 120.08 70.656C119.904 70.464 119.688 70.368 119.432 70.368C119.16 70.368 118.936 70.464 118.76 70.656C118.584 70.832 118.496 71.048 118.496 71.304C118.496 71.56 118.584 71.784 118.76 71.976C118.936 72.152 119.16 72.24 119.432 72.24C119.688 72.24 119.904 72.152 120.08 71.976C120.272 71.784 120.368 71.56 120.368 71.304ZM121.208 73.224C121.208 72.952 121.112 72.728 120.92 72.552C120.744 72.376 120.528 72.288 120.272 72.288C120.016 72.288 119.8 72.376 119.624 72.552C119.448 72.728 119.36 72.952 119.36 73.224C119.36 73.48 119.448 73.696 119.624 73.872C119.8 74.048 120.016 74.136 120.272 74.136C120.528 74.136 120.744 74.048 120.92 73.872C121.112 73.696 121.208 73.48 121.208 73.224ZM122.648 75.12C122.648 74.864 122.56 74.648 122.384 74.472C122.208 74.28 121.992 74.184 121.736 74.184C121.464 74.184 121.24 74.28 121.064 74.472C120.888 74.648 120.8 74.864 120.8 75.12C120.8 75.376 120.888 75.592 121.064 75.768C121.256 75.944 121.48 76.032 121.736 76.032C121.992 76.032 122.208 75.952 122.384 75.792C122.56 75.616 122.648 75.392 122.648 75.12ZM123.872 77.112C123.872 76.84 123.784 76.616 123.608 76.44C123.432 76.264 123.208 76.176 122.936 76.176C122.68 76.176 122.456 76.264 122.264 76.44C122.088 76.616 122 76.84 122 77.112C122 77.368 122.088 77.592 122.264 77.784C122.456 77.96 122.68 78.048 122.936 78.048C123.208 78.048 123.432 77.96 123.608 77.784C123.784 77.592 123.872 77.368 123.872 77.112ZM124.832 79.032C124.832 78.776 124.744 78.56 124.568 78.384C124.392 78.192 124.168 78.096 123.896 78.096C123.64 78.096 123.424 78.192 123.248 78.384C123.072 78.56 122.984 78.776 122.984 79.032C122.984 79.304 123.072 79.528 123.248 79.704C123.424 79.864 123.64 79.944 123.896 79.944C124.168 79.944 124.392 79.864 124.568 79.704C124.744 79.528 124.832 79.304 124.832 79.032ZM120.152 75.12C120.152 74.864 120.064 74.648 119.888 74.472C119.728 74.28 119.512 74.184 119.24 74.184C118.984 74.184 118.76 74.28 118.568 74.472C118.392 74.648 118.304 74.864 118.304 75.12C118.304 75.392 118.392 75.616 118.568 75.792C118.76 75.952 118.984 76.032 119.24 76.032C119.496 76.032 119.712 75.944 119.888 75.768C120.064 75.592 120.152 75.376 120.152 75.12ZM118.904 77.112C118.904 76.84 118.808 76.616 118.616 76.44C118.44 76.264 118.224 76.176 117.968 76.176C117.712 76.176 117.496 76.264 117.32 76.44C117.144 76.616 117.056 76.84 117.056 77.112C117.056 77.368 117.144 77.592 117.32 77.784C117.496 77.96 117.712 78.048 117.968 78.048C118.224 78.048 118.44 77.952 118.616 77.76C118.808 77.568 118.904 77.352 118.904 77.112ZM117.848 79.032C117.848 78.776 117.752 78.56 117.56 78.384C117.384 78.192 117.168 78.096 116.912 78.096C116.64 78.096 116.416 78.192 116.24 78.384C116.064 78.56 115.976 78.776 115.976 79.032C115.976 79.304 116.064 79.528 116.24 79.704C116.416 79.864 116.64 79.944 116.912 79.944C117.168 79.944 117.384 79.864 117.56 79.704C117.752 79.528 117.848 79.304 117.848 79.032ZM147.132 81V73.296L143.076 82.032L139.068 73.344V81H134.676V65.904H139.98L143.1 72.792L146.388 65.904H151.524V81H147.132ZM150.156 67.824C150.156 67.568 150.06 67.352 149.868 67.176C149.692 66.984 149.476 66.888 149.22 66.888C148.948 66.888 148.724 66.984 148.548 67.176C148.372 67.352 148.284 67.568 148.284 67.824C148.284 68.08 148.372 68.296 148.548 68.472C148.724 68.648 148.948 68.736 149.22 68.736C149.476 68.736 149.692 68.648 149.868 68.472C150.06 68.296 150.156 68.08 150.156 67.824ZM150.156 70.032C150.156 69.776 150.06 69.56 149.868 69.384C149.692 69.192 149.476 69.096 149.22 69.096C148.948 69.096 148.724 69.192 148.548 69.384C148.372 69.56 148.284 69.776 148.284 70.032C148.284 70.304 148.372 70.528 148.548 70.704C148.724 70.88 148.948 70.968 149.22 70.968C149.476 70.968 149.692 70.88 149.868 70.704C150.06 70.528 150.156 70.304 150.156 70.032ZM147.132 69.84C147.388 69.84 147.604 69.752 147.78 69.576C147.956 69.384 148.044 69.16 148.044 68.904C148.044 68.648 147.956 68.432 147.78 68.256C147.604 68.064 147.388 67.968 147.132 67.968C146.86 67.968 146.636 68.064 146.46 68.256C146.284 68.432 146.196 68.648 146.196 68.904C146.196 69.16 146.284 69.384 146.46 69.576C146.636 69.752 146.86 69.84 147.132 69.84ZM150.156 72.264C150.156 71.992 150.06 71.776 149.868 71.616C149.692 71.44 149.476 71.352 149.22 71.352C148.948 71.352 148.724 71.44 148.548 71.616C148.372 71.776 148.284 71.992 148.284 72.264C148.284 72.52 148.372 72.744 148.548 72.936C148.724 73.112 148.948 73.2 149.22 73.2C149.476 73.2 149.692 73.112 149.868 72.936C150.06 72.744 150.156 72.52 150.156 72.264ZM147.108 70.92C147.108 70.664 147.012 70.448 146.82 70.272C146.644 70.08 146.428 69.984 146.172 69.984C145.9 69.984 145.676 70.08 145.5 70.272C145.324 70.448 145.236 70.664 145.236 70.92C145.236 71.192 145.324 71.416 145.5 71.592C145.676 71.768 145.9 71.856 146.172 71.856C146.428 71.856 146.644 71.768 146.82 71.592C147.012 71.416 147.108 71.192 147.108 70.92ZM150.156 74.496C150.156 74.24 150.06 74.024 149.868 73.848C149.692 73.656 149.476 73.56 149.22 73.56C148.948 73.56 148.724 73.656 148.548 73.848C148.372 74.024 148.284 74.24 148.284 74.496C148.284 74.752 148.372 74.968 148.548 75.144C148.724 75.32 148.948 75.408 149.22 75.408C149.476 75.408 149.692 75.32 149.868 75.144C150.06 74.968 150.156 74.752 150.156 74.496ZM150.156 76.704C150.156 76.448 150.06 76.232 149.868 76.056C149.692 75.864 149.476 75.768 149.22 75.768C148.948 75.768 148.724 75.864 148.548 76.056C148.372 76.232 148.284 76.448 148.284 76.704C148.284 76.976 148.372 77.2 148.548 77.376C148.724 77.552 148.948 77.64 149.22 77.64C149.476 77.64 149.692 77.552 149.868 77.376C150.06 77.2 150.156 76.976 150.156 76.704ZM146.148 72.96C146.148 72.688 146.06 72.464 145.884 72.288C145.708 72.112 145.492 72.024 145.236 72.024C144.98 72.024 144.756 72.112 144.564 72.288C144.388 72.464 144.3 72.688 144.3 72.96C144.3 73.2 144.388 73.416 144.564 73.608C144.756 73.784 144.98 73.872 145.236 73.872C145.492 73.872 145.708 73.784 145.884 73.608C146.06 73.432 146.148 73.216 146.148 72.96ZM150.156 78.936C150.156 78.68 150.06 78.464 149.868 78.288C149.692 78.112 149.476 78.024 149.22 78.024C148.948 78.024 148.724 78.112 148.548 78.288C148.372 78.464 148.284 78.68 148.284 78.936C148.284 79.192 148.372 79.416 148.548 79.608C148.724 79.784 148.948 79.872 149.22 79.872C149.476 79.872 149.692 79.784 149.868 79.608C150.06 79.416 150.156 79.192 150.156 78.936ZM140.004 68.904C140.004 68.648 139.916 68.432 139.74 68.256C139.564 68.064 139.34 67.968 139.068 67.968C138.812 67.968 138.596 68.064 138.42 68.256C138.244 68.432 138.156 68.648 138.156 68.904C138.156 69.16 138.244 69.384 138.42 69.576C138.596 69.752 138.812 69.84 139.068 69.84C139.34 69.84 139.564 69.752 139.74 69.576C139.916 69.384 140.004 69.16 140.004 68.904ZM145.236 74.952C145.236 74.712 145.14 74.496 144.948 74.304C144.756 74.112 144.54 74.016 144.3 74.016C144.044 74.016 143.82 74.112 143.628 74.304C143.452 74.48 143.364 74.696 143.364 74.952C143.364 75.208 143.452 75.432 143.628 75.624C143.82 75.8 144.044 75.888 144.3 75.888C144.556 75.888 144.772 75.8 144.948 75.624C145.14 75.432 145.236 75.208 145.236 74.952ZM137.916 67.824C137.916 67.568 137.828 67.352 137.652 67.176C137.476 66.984 137.252 66.888 136.98 66.888C136.724 66.888 136.5 66.984 136.308 67.176C136.132 67.352 136.044 67.568 136.044 67.824C136.044 68.08 136.132 68.296 136.308 68.472C136.5 68.648 136.724 68.736 136.98 68.736C137.252 68.736 137.476 68.648 137.652 68.472C137.828 68.296 137.916 68.08 137.916 67.824ZM140.964 70.92C140.964 70.664 140.876 70.448 140.7 70.272C140.524 70.08 140.3 69.984 140.028 69.984C139.772 69.984 139.548 70.08 139.356 70.272C139.18 70.448 139.092 70.664 139.092 70.92C139.092 71.192 139.18 71.416 139.356 71.592C139.548 71.768 139.772 71.856 140.028 71.856C140.3 71.856 140.524 71.768 140.7 71.592C140.876 71.416 140.964 71.192 140.964 70.92ZM141.9 72.96C141.9 72.688 141.812 72.464 141.636 72.288C141.46 72.112 141.236 72.024 140.964 72.024C140.708 72.024 140.492 72.112 140.316 72.288C140.14 72.464 140.052 72.688 140.052 72.96C140.052 73.216 140.14 73.432 140.316 73.608C140.492 73.784 140.708 73.872 140.964 73.872C141.22 73.872 141.436 73.784 141.612 73.608C141.804 73.416 141.9 73.2 141.9 72.96ZM142.836 74.952C142.836 74.696 142.748 74.48 142.572 74.304C142.396 74.112 142.172 74.016 141.9 74.016C141.66 74.016 141.444 74.112 141.252 74.304C141.06 74.496 140.964 74.712 140.964 74.952C140.964 75.208 141.052 75.432 141.228 75.624C141.42 75.8 141.644 75.888 141.9 75.888C142.172 75.888 142.396 75.8 142.572 75.624C142.748 75.432 142.836 75.208 142.836 74.952ZM137.916 70.032C137.916 69.776 137.828 69.56 137.652 69.384C137.476 69.192 137.252 69.096 136.98 69.096C136.724 69.096 136.5 69.192 136.308 69.384C136.132 69.56 136.044 69.776 136.044 70.032C136.044 70.304 136.132 70.528 136.308 70.704C136.5 70.88 136.724 70.968 136.98 70.968C137.252 70.968 137.476 70.88 137.652 70.704C137.828 70.528 137.916 70.304 137.916 70.032ZM143.964 76.968C143.964 76.712 143.876 76.496 143.7 76.32C143.524 76.128 143.3 76.032 143.028 76.032C142.772 76.032 142.548 76.128 142.356 76.32C142.18 76.496 142.092 76.712 142.092 76.968C142.092 77.24 142.18 77.464 142.356 77.64C142.548 77.816 142.772 77.904 143.028 77.904C143.3 77.904 143.524 77.816 143.7 77.64C143.876 77.464 143.964 77.24 143.964 76.968ZM137.916 72.264C137.916 71.992 137.828 71.776 137.652 71.616C137.476 71.44 137.252 71.352 136.98 71.352C136.724 71.352 136.5 71.44 136.308 71.616C136.132 71.776 136.044 71.992 136.044 72.264C136.044 72.52 136.132 72.744 136.308 72.936C136.5 73.112 136.724 73.2 136.98 73.2C137.252 73.2 137.476 73.112 137.652 72.936C137.828 72.744 137.916 72.52 137.916 72.264ZM137.916 74.496C137.916 74.24 137.828 74.024 137.652 73.848C137.476 73.656 137.252 73.56 136.98 73.56C136.724 73.56 136.5 73.656 136.308 73.848C136.132 74.024 136.044 74.24 136.044 74.496C136.044 74.752 136.132 74.968 136.308 75.144C136.5 75.32 136.724 75.408 136.98 75.408C137.252 75.408 137.476 75.32 137.652 75.144C137.828 74.968 137.916 74.752 137.916 74.496ZM137.916 76.704C137.916 76.448 137.828 76.232 137.652 76.056C137.476 75.864 137.252 75.768 136.98 75.768C136.724 75.768 136.5 75.864 136.308 76.056C136.132 76.232 136.044 76.448 136.044 76.704C136.044 76.976 136.132 77.2 136.308 77.376C136.5 77.552 136.724 77.64 136.98 77.64C137.252 77.64 137.476 77.552 137.652 77.376C137.828 77.2 137.916 76.976 137.916 76.704ZM137.916 78.936C137.916 78.68 137.828 78.464 137.652 78.288C137.476 78.112 137.252 78.024 136.98 78.024C136.724 78.024 136.5 78.112 136.308 78.288C136.132 78.464 136.044 78.68 136.044 78.936C136.044 79.192 136.132 79.416 136.308 79.608C136.5 79.784 136.724 79.872 136.98 79.872C137.252 79.872 137.476 79.784 137.652 79.608C137.828 79.416 137.916 79.192 137.916 78.936ZM168.935 73.464C168.935 74.6 168.727 75.648 168.311 76.608C167.911 77.552 167.351 78.376 166.631 79.08C165.927 79.768 165.087 80.312 164.111 80.712C163.135 81.096 162.087 81.288 160.967 81.288C159.831 81.288 158.775 81.096 157.799 80.712C156.839 80.312 155.999 79.768 155.279 79.08C154.575 78.376 154.015 77.552 153.599 76.608C153.199 75.648 152.999 74.6 152.999 73.464C152.999 72.312 153.199 71.256 153.599 70.296C153.999 69.336 154.551 68.512 155.255 67.824C155.975 67.12 156.823 66.576 157.799 66.192C158.775 65.808 159.831 65.616 160.967 65.616C162.087 65.616 163.127 65.816 164.087 66.216C165.063 66.6 165.911 67.144 166.631 67.848C167.351 68.536 167.911 69.36 168.311 70.32C168.727 71.28 168.935 72.328 168.935 73.464ZM160.967 68.64C161.239 68.64 161.455 68.552 161.615 68.376C161.791 68.2 161.879 67.976 161.879 67.704C161.879 67.448 161.791 67.232 161.615 67.056C161.455 66.88 161.239 66.792 160.967 66.792C160.727 66.792 160.511 66.888 160.319 67.08C160.127 67.256 160.031 67.464 160.031 67.704C160.031 67.976 160.119 68.2 160.295 68.376C160.487 68.552 160.711 68.64 160.967 68.64ZM159.623 68.28C159.623 68.024 159.527 67.808 159.335 67.632C159.159 67.44 158.943 67.344 158.687 67.344C158.415 67.344 158.191 67.44 158.015 67.632C157.839 67.808 157.751 68.024 157.751 68.28C157.751 68.536 157.839 68.76 158.015 68.952C158.191 69.128 158.415 69.216 158.687 69.216C158.927 69.216 159.143 69.12 159.335 68.928C159.527 68.736 159.623 68.52 159.623 68.28ZM160.967 77.04C161.943 77.04 162.735 76.736 163.343 76.128C163.951 75.504 164.255 74.616 164.255 73.464C164.255 72.312 163.951 71.424 163.343 70.8C162.735 70.176 161.943 69.864 160.967 69.864C159.959 69.864 159.159 70.176 158.567 70.8C157.975 71.408 157.679 72.296 157.679 73.464C157.679 74.616 157.975 75.504 158.567 76.128C159.159 76.736 159.959 77.04 160.967 77.04ZM157.775 69.48C157.775 69.224 157.679 69.008 157.487 68.832C157.311 68.64 157.095 68.544 156.839 68.544C156.583 68.544 156.367 68.64 156.191 68.832C156.015 69.008 155.927 69.224 155.927 69.48C155.927 69.736 156.015 69.952 156.191 70.128C156.367 70.304 156.583 70.392 156.839 70.392C157.095 70.392 157.311 70.304 157.487 70.128C157.679 69.952 157.775 69.736 157.775 69.48ZM155.711 72.24C155.967 72.24 156.183 72.152 156.359 71.976C156.535 71.784 156.623 71.56 156.623 71.304C156.623 71.032 156.535 70.808 156.359 70.632C156.183 70.456 155.967 70.368 155.711 70.368C155.455 70.368 155.231 70.456 155.039 70.632C154.863 70.808 154.775 71.032 154.775 71.304C154.775 71.544 154.863 71.76 155.039 71.952C155.231 72.144 155.455 72.24 155.711 72.24ZM156.287 73.464C156.287 73.192 156.191 72.968 155.999 72.792C155.823 72.616 155.607 72.528 155.351 72.528C155.079 72.528 154.855 72.616 154.679 72.792C154.519 72.968 154.439 73.192 154.439 73.464C154.439 73.72 154.519 73.936 154.679 74.112C154.855 74.288 155.079 74.376 155.351 74.376C155.607 74.376 155.823 74.288 155.999 74.112C156.191 73.936 156.287 73.72 156.287 73.464ZM160.967 80.112C161.239 80.112 161.455 80.024 161.615 79.848C161.791 79.656 161.879 79.432 161.879 79.176C161.879 78.92 161.791 78.704 161.615 78.528C161.455 78.352 161.239 78.264 160.967 78.264C160.711 78.264 160.487 78.352 160.295 78.528C160.119 78.704 160.031 78.92 160.031 79.176C160.031 79.432 160.119 79.656 160.295 79.848C160.487 80.024 160.711 80.112 160.967 80.112ZM156.599 75.6C156.599 75.328 156.503 75.104 156.311 74.928C156.135 74.752 155.919 74.664 155.663 74.664C155.407 74.664 155.183 74.752 154.991 74.928C154.815 75.104 154.727 75.328 154.727 75.6C154.727 75.84 154.823 76.056 155.015 76.248C155.207 76.44 155.423 76.536 155.663 76.536C155.919 76.536 156.135 76.448 156.311 76.272C156.503 76.08 156.599 75.856 156.599 75.6ZM159.623 78.648C159.623 78.392 159.527 78.176 159.335 78C159.159 77.808 158.943 77.712 158.687 77.712C158.415 77.712 158.191 77.808 158.015 78C157.839 78.176 157.751 78.392 157.751 78.648C157.751 78.904 157.839 79.12 158.015 79.296C158.191 79.472 158.415 79.56 158.687 79.56C158.927 79.56 159.143 79.472 159.335 79.296C159.527 79.12 159.623 78.904 159.623 78.648ZM157.775 77.448C157.775 77.192 157.679 76.976 157.487 76.8C157.311 76.624 157.095 76.536 156.839 76.536C156.583 76.536 156.367 76.624 156.191 76.8C156.015 76.976 155.927 77.192 155.927 77.448C155.927 77.704 156.015 77.928 156.191 78.12C156.367 78.296 156.583 78.384 156.839 78.384C157.095 78.384 157.311 78.288 157.487 78.096C157.679 77.904 157.775 77.688 157.775 77.448ZM163.247 69.216C163.519 69.216 163.735 69.128 163.895 68.952C164.071 68.76 164.159 68.536 164.159 68.28C164.159 68.024 164.071 67.808 163.895 67.632C163.735 67.44 163.519 67.344 163.247 67.344C162.991 67.344 162.767 67.44 162.575 67.632C162.399 67.808 162.311 68.024 162.311 68.28C162.311 68.52 162.407 68.736 162.599 68.928C162.791 69.12 163.007 69.216 163.247 69.216ZM166.007 69.48C166.007 69.224 165.911 69.008 165.719 68.832C165.543 68.64 165.327 68.544 165.071 68.544C164.815 68.544 164.599 68.64 164.423 68.832C164.247 69.008 164.159 69.224 164.159 69.48C164.159 69.736 164.247 69.952 164.423 70.128C164.615 70.304 164.831 70.392 165.071 70.392C165.327 70.392 165.543 70.304 165.719 70.128C165.911 69.952 166.007 69.736 166.007 69.48ZM167.159 71.304C167.159 71.032 167.063 70.808 166.871 70.632C166.695 70.456 166.479 70.368 166.223 70.368C165.967 70.368 165.743 70.456 165.551 70.632C165.375 70.808 165.287 71.032 165.287 71.304C165.287 71.56 165.375 71.784 165.551 71.976C165.743 72.152 165.967 72.24 166.223 72.24C166.463 72.24 166.679 72.144 166.871 71.952C167.063 71.76 167.159 71.544 167.159 71.304ZM167.495 73.464C167.495 73.192 167.407 72.968 167.231 72.792C167.055 72.616 166.831 72.528 166.559 72.528C166.303 72.528 166.087 72.616 165.911 72.792C165.735 72.968 165.647 73.192 165.647 73.464C165.647 73.72 165.735 73.936 165.911 74.112C166.087 74.288 166.303 74.376 166.559 74.376C166.831 74.376 167.055 74.288 167.231 74.112C167.407 73.936 167.495 73.72 167.495 73.464ZM166.271 76.536C166.511 76.536 166.719 76.44 166.895 76.248C167.087 76.056 167.183 75.84 167.183 75.6C167.183 75.328 167.095 75.104 166.919 74.928C166.743 74.752 166.527 74.664 166.271 74.664C166.015 74.664 165.791 74.752 165.599 74.928C165.423 75.104 165.335 75.328 165.335 75.6C165.335 75.856 165.423 76.08 165.599 76.272C165.791 76.448 166.015 76.536 166.271 76.536ZM164.159 78.648C164.159 78.392 164.071 78.176 163.895 78C163.735 77.808 163.519 77.712 163.247 77.712C162.991 77.712 162.767 77.808 162.575 78C162.399 78.176 162.311 78.392 162.311 78.648C162.311 78.904 162.407 79.12 162.599 79.296C162.791 79.472 163.007 79.56 163.247 79.56C163.519 79.56 163.735 79.472 163.895 79.296C164.071 79.12 164.159 78.904 164.159 78.648ZM166.007 77.448C166.007 77.192 165.911 76.976 165.719 76.8C165.543 76.624 165.327 76.536 165.071 76.536C164.815 76.536 164.599 76.624 164.423 76.8C164.247 76.976 164.159 77.192 164.159 77.448C164.159 77.688 164.247 77.904 164.423 78.096C164.615 78.288 164.831 78.384 165.071 78.384C165.327 78.384 165.543 78.296 165.719 78.12C165.911 77.928 166.007 77.704 166.007 77.448ZM173.397 81L168.621 65.904H173.613L175.605 74.016L177.621 65.904H182.397L177.621 81H173.397ZM180.573 67.584C180.573 67.328 180.477 67.112 180.285 66.936C180.109 66.76 179.893 66.672 179.637 66.672C179.365 66.672 179.141 66.76 178.965 66.936C178.805 67.112 178.725 67.328 178.725 67.584C178.725 67.84 178.805 68.064 178.965 68.256C179.141 68.432 179.365 68.52 179.637 68.52C179.893 68.52 180.109 68.432 180.285 68.256C180.477 68.064 180.573 67.84 180.573 67.584ZM178.989 70.464C179.261 70.464 179.477 70.376 179.637 70.2C179.813 70.008 179.901 69.784 179.901 69.528C179.901 69.256 179.813 69.032 179.637 68.856C179.477 68.68 179.261 68.592 178.989 68.592C178.733 68.592 178.509 68.68 178.317 68.856C178.141 69.032 178.053 69.256 178.053 69.528C178.053 69.784 178.141 70.008 178.317 70.2C178.509 70.376 178.733 70.464 178.989 70.464ZM179.253 71.448C179.253 71.192 179.165 70.976 178.989 70.8C178.829 70.608 178.613 70.512 178.341 70.512C178.085 70.512 177.861 70.608 177.669 70.8C177.493 70.976 177.405 71.192 177.405 71.448C177.405 71.704 177.501 71.92 177.693 72.096C177.885 72.272 178.101 72.36 178.341 72.36C178.613 72.36 178.829 72.28 178.989 72.12C179.165 71.944 179.253 71.72 179.253 71.448ZM178.677 73.368C178.677 73.112 178.581 72.896 178.389 72.72C178.213 72.544 177.997 72.456 177.741 72.456C177.469 72.456 177.245 72.544 177.069 72.72C176.909 72.896 176.829 73.112 176.829 73.368C176.829 73.624 176.917 73.848 177.093 74.04C177.269 74.216 177.485 74.304 177.741 74.304C177.997 74.304 178.213 74.216 178.389 74.04C178.581 73.848 178.677 73.624 178.677 73.368ZM172.509 67.584C172.509 67.328 172.421 67.112 172.245 66.936C172.069 66.76 171.845 66.672 171.573 66.672C171.317 66.672 171.101 66.76 170.925 66.936C170.749 67.112 170.661 67.328 170.661 67.584C170.661 67.84 170.749 68.064 170.925 68.256C171.101 68.432 171.317 68.52 171.573 68.52C171.845 68.52 172.069 68.432 172.245 68.256C172.421 68.064 172.509 67.84 172.509 67.584ZM173.181 69.528C173.181 69.256 173.085 69.032 172.893 68.856C172.717 68.68 172.501 68.592 172.245 68.592C171.973 68.592 171.749 68.68 171.573 68.856C171.397 69.032 171.309 69.256 171.309 69.528C171.309 69.784 171.397 70.008 171.573 70.2C171.749 70.376 171.973 70.464 172.245 70.464C172.485 70.464 172.701 70.368 172.893 70.176C173.085 69.984 173.181 69.768 173.181 69.528ZM178.077 75.312C178.077 75.04 177.989 74.816 177.813 74.64C177.637 74.464 177.413 74.376 177.141 74.376C176.885 74.376 176.669 74.464 176.493 74.64C176.317 74.816 176.229 75.04 176.229 75.312C176.229 75.568 176.317 75.792 176.493 75.984C176.669 76.16 176.885 76.248 177.141 76.248C177.397 76.248 177.613 76.152 177.789 75.96C177.981 75.768 178.077 75.552 178.077 75.312ZM173.829 71.448C173.829 71.192 173.733 70.976 173.541 70.8C173.365 70.608 173.149 70.512 172.893 70.512C172.621 70.512 172.397 70.608 172.221 70.8C172.045 70.976 171.957 71.192 171.957 71.448C171.957 71.72 172.045 71.944 172.221 72.12C172.397 72.28 172.621 72.36 172.893 72.36C173.133 72.36 173.349 72.272 173.541 72.096C173.733 71.92 173.829 71.704 173.829 71.448ZM174.381 73.368C174.381 73.112 174.293 72.896 174.117 72.72C173.941 72.544 173.717 72.456 173.445 72.456C173.189 72.456 172.973 72.544 172.797 72.72C172.621 72.896 172.533 73.112 172.533 73.368C172.533 73.624 172.621 73.848 172.797 74.04C172.989 74.216 173.205 74.304 173.445 74.304C173.717 74.304 173.941 74.216 174.117 74.04C174.293 73.848 174.381 73.624 174.381 73.368ZM177.573 77.232C177.573 76.944 177.461 76.712 177.237 76.536C177.029 76.36 176.781 76.272 176.493 76.272C176.269 76.272 176.085 76.376 175.941 76.584C175.797 76.776 175.725 76.992 175.725 77.232C175.725 77.504 175.805 77.728 175.965 77.904C176.141 78.08 176.365 78.168 176.637 78.168C176.877 78.168 177.093 78.08 177.285 77.904C177.477 77.712 177.573 77.488 177.573 77.232ZM174.093 76.248C174.349 76.248 174.565 76.16 174.741 75.984C174.917 75.792 175.005 75.568 175.005 75.312C175.005 75.04 174.917 74.816 174.741 74.64C174.565 74.464 174.349 74.376 174.093 74.376C173.821 74.376 173.597 74.464 173.421 74.64C173.245 74.816 173.157 75.04 173.157 75.312C173.157 75.552 173.245 75.768 173.421 75.96C173.613 76.152 173.837 76.248 174.093 76.248ZM174.597 78.168C174.869 78.168 175.085 78.08 175.245 77.904C175.421 77.728 175.509 77.504 175.509 77.232C175.509 76.992 175.437 76.776 175.293 76.584C175.149 76.376 174.957 76.272 174.717 76.272C174.445 76.272 174.197 76.36 173.973 76.536C173.765 76.712 173.661 76.944 173.661 77.232C173.661 77.504 173.749 77.728 173.925 77.904C174.117 78.08 174.341 78.168 174.597 78.168ZM176.397 79.176C176.397 78.92 176.301 78.704 176.109 78.528C175.933 78.336 175.717 78.24 175.461 78.24C175.189 78.24 174.965 78.336 174.789 78.528C174.629 78.704 174.549 78.92 174.549 79.176C174.549 79.432 174.629 79.648 174.789 79.824C174.965 80 175.189 80.088 175.461 80.088C175.717 80.088 175.933 80 176.109 79.824C176.301 79.632 176.397 79.416 176.397 79.176ZM183.427 81V65.904H188.155V81H183.427ZM186.643 67.824C186.643 67.568 186.555 67.352 186.379 67.176C186.219 66.984 186.003 66.888 185.731 66.888C185.475 66.888 185.251 66.984 185.059 67.176C184.883 67.352 184.795 67.568 184.795 67.824C184.795 68.08 184.883 68.296 185.059 68.472C185.251 68.648 185.475 68.736 185.731 68.736C186.003 68.736 186.219 68.648 186.379 68.472C186.555 68.296 186.643 68.08 186.643 67.824ZM185.731 70.968C186.003 70.968 186.219 70.88 186.379 70.704C186.555 70.528 186.643 70.304 186.643 70.032C186.643 69.776 186.555 69.56 186.379 69.384C186.219 69.192 186.003 69.096 185.731 69.096C185.475 69.096 185.251 69.192 185.059 69.384C184.883 69.56 184.795 69.776 184.795 70.032C184.795 70.304 184.883 70.528 185.059 70.704C185.251 70.88 185.475 70.968 185.731 70.968ZM185.731 73.2C186.003 73.2 186.219 73.112 186.379 72.936C186.555 72.744 186.643 72.52 186.643 72.264C186.643 71.992 186.555 71.776 186.379 71.616C186.219 71.44 186.003 71.352 185.731 71.352C185.475 71.352 185.251 71.44 185.059 71.616C184.883 71.776 184.795 71.992 184.795 72.264C184.795 72.52 184.883 72.744 185.059 72.936C185.251 73.112 185.475 73.2 185.731 73.2ZM186.643 74.496C186.643 74.24 186.555 74.024 186.379 73.848C186.219 73.656 186.003 73.56 185.731 73.56C185.475 73.56 185.251 73.656 185.059 73.848C184.883 74.024 184.795 74.24 184.795 74.496C184.795 74.752 184.883 74.968 185.059 75.144C185.251 75.32 185.475 75.408 185.731 75.408C186.003 75.408 186.219 75.32 186.379 75.144C186.555 74.968 186.643 74.752 186.643 74.496ZM185.731 77.64C186.003 77.64 186.219 77.552 186.379 77.376C186.555 77.2 186.643 76.976 186.643 76.704C186.643 76.448 186.555 76.232 186.379 76.056C186.219 75.864 186.003 75.768 185.731 75.768C185.475 75.768 185.251 75.864 185.059 76.056C184.883 76.232 184.795 76.448 184.795 76.704C184.795 76.976 184.883 77.2 185.059 77.376C185.251 77.552 185.475 77.64 185.731 77.64ZM185.731 79.872C186.003 79.872 186.219 79.784 186.379 79.608C186.555 79.416 186.643 79.192 186.643 78.936C186.643 78.68 186.555 78.464 186.379 78.288C186.219 78.112 186.003 78.024 185.731 78.024C185.475 78.024 185.251 78.112 185.059 78.288C184.883 78.464 184.795 78.68 184.795 78.936C184.795 79.192 184.883 79.416 185.059 79.608C185.251 79.784 185.475 79.872 185.731 79.872ZM189.943 81V65.904H198.991V69.72H194.623V71.472H198.991V75.288H194.623V77.04H198.991V81H189.943ZM197.623 67.824C197.623 67.568 197.527 67.352 197.335 67.176C197.159 66.984 196.943 66.888 196.687 66.888C196.431 66.888 196.215 66.984 196.039 67.176C195.863 67.352 195.775 67.568 195.775 67.824C195.775 68.08 195.863 68.296 196.039 68.472C196.215 68.648 196.431 68.736 196.687 68.736C196.943 68.736 197.159 68.648 197.335 68.472C197.527 68.296 197.623 68.08 197.623 67.824ZM195.415 67.824C195.415 67.568 195.319 67.352 195.127 67.176C194.951 66.984 194.735 66.888 194.479 66.888C194.207 66.888 193.983 66.984 193.807 67.176C193.631 67.352 193.543 67.568 193.543 67.824C193.543 68.08 193.631 68.296 193.807 68.472C193.983 68.648 194.207 68.736 194.479 68.736C194.735 68.736 194.951 68.648 195.127 68.472C195.319 68.296 195.415 68.08 195.415 67.824ZM193.159 67.824C193.159 67.568 193.071 67.352 192.895 67.176C192.735 66.984 192.519 66.888 192.247 66.888C191.991 66.888 191.767 66.984 191.575 67.176C191.399 67.352 191.311 67.568 191.311 67.824C191.311 68.08 191.399 68.296 191.575 68.472C191.767 68.648 191.991 68.736 192.247 68.736C192.519 68.736 192.735 68.648 192.895 68.472C193.071 68.296 193.159 68.08 193.159 67.824ZM197.623 73.368C197.623 73.112 197.527 72.896 197.335 72.72C197.159 72.544 196.943 72.456 196.687 72.456C196.431 72.456 196.215 72.544 196.039 72.72C195.863 72.896 195.775 73.112 195.775 73.368C195.775 73.624 195.863 73.848 196.039 74.04C196.215 74.216 196.431 74.304 196.687 74.304C196.943 74.304 197.159 74.216 197.335 74.04C197.527 73.848 197.623 73.624 197.623 73.368ZM192.247 70.968C192.519 70.968 192.735 70.88 192.895 70.704C193.071 70.528 193.159 70.304 193.159 70.032C193.159 69.776 193.071 69.56 192.895 69.384C192.735 69.192 192.519 69.096 192.247 69.096C191.991 69.096 191.767 69.192 191.575 69.384C191.399 69.56 191.311 69.776 191.311 70.032C191.311 70.304 191.399 70.528 191.575 70.704C191.767 70.88 191.991 70.968 192.247 70.968ZM195.415 73.368C195.415 73.112 195.319 72.896 195.127 72.72C194.951 72.544 194.735 72.456 194.479 72.456C194.207 72.456 193.983 72.544 193.807 72.72C193.631 72.896 193.543 73.112 193.543 73.368C193.543 73.624 193.631 73.848 193.807 74.04C193.983 74.216 194.207 74.304 194.479 74.304C194.735 74.304 194.951 74.216 195.127 74.04C195.319 73.848 195.415 73.624 195.415 73.368ZM192.247 73.2C192.519 73.2 192.735 73.112 192.895 72.936C193.071 72.744 193.159 72.52 193.159 72.264C193.159 71.992 193.071 71.776 192.895 71.616C192.735 71.44 192.519 71.352 192.247 71.352C191.991 71.352 191.767 71.44 191.575 71.616C191.399 71.776 191.311 71.992 191.311 72.264C191.311 72.52 191.399 72.744 191.575 72.936C191.767 73.112 191.991 73.2 192.247 73.2ZM193.159 74.496C193.159 74.24 193.071 74.024 192.895 73.848C192.735 73.656 192.519 73.56 192.247 73.56C191.991 73.56 191.767 73.656 191.575 73.848C191.399 74.024 191.311 74.24 191.311 74.496C191.311 74.752 191.399 74.968 191.575 75.144C191.767 75.32 191.991 75.408 192.247 75.408C192.519 75.408 192.735 75.32 192.895 75.144C193.071 74.968 193.159 74.752 193.159 74.496ZM197.623 78.936C197.623 78.68 197.527 78.464 197.335 78.288C197.159 78.112 196.943 78.024 196.687 78.024C196.431 78.024 196.215 78.112 196.039 78.288C195.863 78.464 195.775 78.68 195.775 78.936C195.775 79.192 195.863 79.416 196.039 79.608C196.215 79.784 196.431 79.872 196.687 79.872C196.943 79.872 197.159 79.784 197.335 79.608C197.527 79.416 197.623 79.192 197.623 78.936ZM192.247 77.64C192.519 77.64 192.735 77.552 192.895 77.376C193.071 77.2 193.159 76.976 193.159 76.704C193.159 76.448 193.071 76.232 192.895 76.056C192.735 75.864 192.519 75.768 192.247 75.768C191.991 75.768 191.767 75.864 191.575 76.056C191.399 76.232 191.311 76.448 191.311 76.704C191.311 76.976 191.399 77.2 191.575 77.376C191.767 77.552 191.991 77.64 192.247 77.64ZM195.415 78.936C195.415 78.68 195.319 78.464 195.127 78.288C194.951 78.112 194.735 78.024 194.479 78.024C194.207 78.024 193.983 78.112 193.807 78.288C193.631 78.464 193.543 78.68 193.543 78.936C193.543 79.192 193.631 79.416 193.807 79.608C193.983 79.784 194.207 79.872 194.479 79.872C194.735 79.872 194.951 79.784 195.127 79.608C195.319 79.416 195.415 79.192 195.415 78.936ZM192.247 79.872C192.519 79.872 192.735 79.784 192.895 79.608C193.071 79.416 193.159 79.192 193.159 78.936C193.159 78.68 193.071 78.464 192.895 78.288C192.735 78.112 192.519 78.024 192.247 78.024C191.991 78.024 191.767 78.112 191.575 78.288C191.399 78.464 191.311 78.68 191.311 78.936C191.311 79.192 191.399 79.416 191.575 79.608C191.767 79.784 191.991 79.872 192.247 79.872ZM54.752 108L52.568 103.776V108H47.888V92.904H53.624C54.488 92.904 55.272 93.024 55.976 93.264C56.696 93.504 57.304 93.84 57.8 94.272C58.312 94.704 58.704 95.232 58.976 95.856C59.248 96.48 59.384 97.176 59.384 97.944C59.384 99 59.136 99.896 58.64 100.632C58.144 101.352 57.464 101.84 56.6 102.096L60.416 108H54.752ZM57.44 96.12C57.44 95.864 57.344 95.648 57.152 95.472C56.976 95.296 56.76 95.208 56.504 95.208C56.248 95.208 56.032 95.296 55.856 95.472C55.68 95.648 55.592 95.864 55.592 96.12C55.592 96.392 55.68 96.616 55.856 96.792C56.032 96.968 56.248 97.056 56.504 97.056C56.76 97.056 56.976 96.968 57.152 96.792C57.344 96.6 57.44 96.376 57.44 96.12ZM55.592 94.896C55.592 94.656 55.496 94.44 55.304 94.248C55.112 94.056 54.896 93.96 54.656 93.96C54.4 93.96 54.184 94.056 54.008 94.248C53.832 94.424 53.744 94.64 53.744 94.896C53.744 95.168 53.832 95.392 54.008 95.568C54.184 95.744 54.4 95.832 54.656 95.832C54.912 95.832 55.128 95.744 55.304 95.568C55.496 95.392 55.592 95.168 55.592 94.896ZM56.984 99.072C57.224 99.072 57.432 98.984 57.608 98.808C57.8 98.616 57.896 98.392 57.896 98.136C57.896 97.88 57.808 97.664 57.632 97.488C57.456 97.312 57.24 97.224 56.984 97.224C56.728 97.224 56.504 97.312 56.312 97.488C56.136 97.648 56.048 97.864 56.048 98.136C56.048 98.392 56.136 98.616 56.312 98.808C56.504 98.984 56.728 99.072 56.984 99.072ZM53.36 94.776C53.36 94.52 53.272 94.304 53.096 94.128C52.936 93.952 52.72 93.864 52.448 93.864C52.192 93.864 51.968 93.952 51.776 94.128C51.6 94.288 51.512 94.496 51.512 94.752C51.512 95.008 51.6 95.232 51.776 95.424C51.968 95.6 52.192 95.688 52.448 95.688C52.704 95.688 52.92 95.6 53.096 95.424C53.272 95.232 53.36 95.016 53.36 94.776ZM56.144 101.064C56.4 101.064 56.616 100.976 56.792 100.8C56.968 100.608 57.056 100.384 57.056 100.128C57.056 99.872 56.968 99.656 56.792 99.48C56.616 99.304 56.4 99.216 56.144 99.216C55.888 99.216 55.664 99.312 55.472 99.504C55.296 99.68 55.208 99.888 55.208 100.128C55.208 100.384 55.296 100.608 55.472 100.8C55.648 100.976 55.872 101.064 56.144 101.064ZM53.072 99.504C54.112 99.504 54.632 99.032 54.632 98.088C54.632 97.192 54.08 96.744 52.976 96.744H52.568V99.504H53.072ZM51.104 94.824C51.104 94.568 51.016 94.352 50.84 94.176C50.68 93.984 50.464 93.888 50.192 93.888C49.936 93.888 49.712 93.984 49.52 94.176C49.344 94.352 49.256 94.568 49.256 94.824C49.256 95.08 49.344 95.296 49.52 95.472C49.712 95.648 49.936 95.736 50.192 95.736C50.464 95.736 50.68 95.648 50.84 95.472C51.016 95.296 51.104 95.08 51.104 94.824ZM50.192 97.968C50.464 97.968 50.68 97.88 50.84 97.704C51.016 97.528 51.104 97.304 51.104 97.032C51.104 96.776 51.016 96.56 50.84 96.384C50.68 96.192 50.464 96.096 50.192 96.096C49.936 96.096 49.712 96.192 49.52 96.384C49.344 96.56 49.256 96.776 49.256 97.032C49.256 97.304 49.344 97.528 49.52 97.704C49.712 97.88 49.936 97.968 50.192 97.968ZM55.304 101.376C55.304 101.104 55.208 100.888 55.016 100.728C54.84 100.552 54.624 100.464 54.368 100.464C54.128 100.464 53.912 100.552 53.72 100.728C53.544 100.904 53.456 101.12 53.456 101.376C53.456 101.632 53.544 101.856 53.72 102.048C53.896 102.224 54.112 102.312 54.368 102.312C54.624 102.312 54.84 102.224 55.016 102.048C55.208 101.856 55.304 101.632 55.304 101.376ZM56.192 103.704C56.192 103.432 56.104 103.208 55.928 103.032C55.752 102.856 55.528 102.768 55.256 102.768C55.016 102.768 54.8 102.864 54.608 103.056C54.432 103.232 54.344 103.448 54.344 103.704C54.344 103.96 54.432 104.184 54.608 104.376C54.784 104.552 55 104.64 55.256 104.64C55.528 104.64 55.752 104.552 55.928 104.376C56.104 104.184 56.192 103.96 56.192 103.704ZM50.192 100.2C50.464 100.2 50.68 100.112 50.84 99.936C51.016 99.744 51.104 99.52 51.104 99.264C51.104 98.992 51.016 98.776 50.84 98.616C50.68 98.44 50.464 98.352 50.192 98.352C49.936 98.352 49.712 98.44 49.52 98.616C49.344 98.776 49.256 98.992 49.256 99.264C49.256 99.52 49.344 99.744 49.52 99.936C49.712 100.112 49.936 100.2 50.192 100.2ZM52.208 102.312C52.464 102.312 52.68 102.224 52.856 102.048C53.032 101.872 53.12 101.648 53.12 101.376C53.12 101.12 53.032 100.904 52.856 100.728C52.68 100.552 52.464 100.464 52.208 100.464C51.936 100.464 51.712 100.552 51.536 100.728C51.36 100.904 51.272 101.12 51.272 101.376C51.272 101.648 51.36 101.872 51.536 102.048C51.712 102.224 51.936 102.312 52.208 102.312ZM57.32 105.984C57.32 105.712 57.224 105.488 57.032 105.312C56.856 105.136 56.64 105.048 56.384 105.048C56.128 105.048 55.912 105.144 55.736 105.336C55.56 105.512 55.472 105.728 55.472 105.984C55.472 106.24 55.552 106.464 55.712 106.656C55.888 106.832 56.112 106.92 56.384 106.92C56.64 106.92 56.856 106.832 57.032 106.656C57.224 106.464 57.32 106.24 57.32 105.984ZM51.104 101.496C51.104 101.24 51.016 101.024 50.84 100.848C50.68 100.656 50.464 100.56 50.192 100.56C49.936 100.56 49.712 100.656 49.52 100.848C49.344 101.024 49.256 101.24 49.256 101.496C49.256 101.752 49.344 101.968 49.52 102.144C49.712 102.32 49.936 102.408 50.192 102.408C50.464 102.408 50.68 102.32 50.84 102.144C51.016 101.968 51.104 101.752 51.104 101.496ZM50.192 104.64C50.464 104.64 50.68 104.552 50.84 104.376C51.016 104.2 51.104 103.976 51.104 103.704C51.104 103.448 51.016 103.232 50.84 103.056C50.68 102.864 50.464 102.768 50.192 102.768C49.936 102.768 49.712 102.864 49.52 103.056C49.344 103.232 49.256 103.448 49.256 103.704C49.256 103.976 49.344 104.2 49.52 104.376C49.712 104.552 49.936 104.64 50.192 104.64ZM50.192 106.872C50.464 106.872 50.68 106.784 50.84 106.608C51.016 106.416 51.104 106.192 51.104 105.936C51.104 105.68 51.016 105.464 50.84 105.288C50.68 105.112 50.464 105.024 50.192 105.024C49.936 105.024 49.712 105.112 49.52 105.288C49.344 105.464 49.256 105.68 49.256 105.936C49.256 106.192 49.344 106.416 49.52 106.608C49.712 106.784 49.936 106.872 50.192 106.872ZM71.5595 108L71.0795 106.416H66.3035L65.7995 108H60.8315L66.0635 92.904H71.2475L76.5035 108H71.5595ZM69.6875 95.664C69.9435 95.664 70.1595 95.576 70.3355 95.4C70.5115 95.224 70.5995 95 70.5995 94.728C70.5995 94.488 70.5035 94.28 70.3115 94.104C70.1355 93.912 69.9275 93.816 69.6875 93.816C69.4315 93.816 69.2075 93.904 69.0155 94.08C68.8395 94.256 68.7515 94.472 68.7515 94.728C68.7515 95 68.8395 95.224 69.0155 95.4C69.2075 95.576 69.4315 95.664 69.6875 95.664ZM71.1515 96.672C71.1515 96.416 71.0555 96.2 70.8635 96.024C70.6875 95.832 70.4715 95.736 70.2155 95.736C69.9595 95.736 69.7435 95.832 69.5675 96.024C69.3915 96.2 69.3035 96.416 69.3035 96.672C69.3035 96.928 69.3835 97.152 69.5435 97.344C69.7195 97.52 69.9435 97.608 70.2155 97.608C70.4715 97.608 70.6875 97.52 70.8635 97.344C71.0555 97.152 71.1515 96.928 71.1515 96.672ZM67.6475 95.664C67.9035 95.664 68.1195 95.576 68.2955 95.4C68.4715 95.224 68.5595 95 68.5595 94.728C68.5595 94.488 68.4635 94.28 68.2715 94.104C68.0955 93.912 67.8875 93.816 67.6475 93.816C67.3755 93.816 67.1515 93.904 66.9755 94.08C66.7995 94.256 66.7115 94.472 66.7115 94.728C66.7115 95 66.7995 95.224 66.9755 95.4C67.1515 95.576 67.3755 95.664 67.6475 95.664ZM71.8235 98.616C71.8235 98.344 71.7275 98.12 71.5355 97.944C71.3595 97.768 71.1435 97.68 70.8875 97.68C70.6315 97.68 70.4075 97.776 70.2155 97.968C70.0395 98.144 69.9515 98.36 69.9515 98.616C69.9515 98.872 70.0395 99.088 70.2155 99.264C70.3915 99.44 70.6155 99.528 70.8875 99.528C71.1435 99.528 71.3595 99.44 71.5355 99.264C71.7275 99.088 71.8235 98.872 71.8235 98.616ZM71.5595 101.448C71.8155 101.448 72.0315 101.36 72.2075 101.184C72.3835 101.008 72.4715 100.784 72.4715 100.512C72.4715 100.256 72.3835 100.04 72.2075 99.864C72.0315 99.688 71.8155 99.6 71.5595 99.6C71.3035 99.6 71.0795 99.688 70.8875 99.864C70.7115 100.04 70.6235 100.256 70.6235 100.512C70.6235 100.784 70.7115 101.008 70.8875 101.184C71.0795 101.36 71.3035 101.448 71.5595 101.448ZM73.1435 102.456C73.1435 102.216 73.0475 102 72.8555 101.808C72.6795 101.616 72.4635 101.52 72.2075 101.52C71.9515 101.52 71.7355 101.616 71.5595 101.808C71.3835 101.984 71.2955 102.2 71.2955 102.456C71.2955 102.712 71.3835 102.936 71.5595 103.128C71.7355 103.304 71.9515 103.392 72.2075 103.392C72.4635 103.392 72.6795 103.304 72.8555 103.128C73.0475 102.936 73.1435 102.712 73.1435 102.456ZM73.8155 104.4C73.8155 104.144 73.7195 103.928 73.5275 103.752C73.3355 103.56 73.1195 103.464 72.8795 103.464C72.6235 103.464 72.4075 103.552 72.2315 103.728C72.0555 103.904 71.9675 104.128 71.9675 104.4C71.9675 104.656 72.0555 104.872 72.2315 105.048C72.4075 105.224 72.6235 105.312 72.8795 105.312C73.1355 105.312 73.3515 105.224 73.5275 105.048C73.7195 104.872 73.8155 104.656 73.8155 104.4ZM68.6555 98.256L67.3835 102.648H69.9515L68.6555 98.256ZM74.4635 106.296C74.4635 106.04 74.3755 105.824 74.1995 105.648C74.0235 105.472 73.7995 105.384 73.5275 105.384C73.2875 105.384 73.0715 105.48 72.8795 105.672C72.6875 105.848 72.5915 106.056 72.5915 106.296C72.5915 106.568 72.6795 106.792 72.8555 106.968C73.0475 107.144 73.2715 107.232 73.5275 107.232C73.7995 107.232 74.0235 107.144 74.1995 106.968C74.3755 106.792 74.4635 106.568 74.4635 106.296ZM70.8395 105.408C71.0955 105.408 71.3115 105.32 71.4875 105.144C71.6635 104.968 71.7515 104.744 71.7515 104.472C71.7515 104.216 71.6635 104 71.4875 103.824C71.3115 103.632 71.0955 103.536 70.8395 103.536C70.5835 103.536 70.3595 103.632 70.1675 103.824C69.9915 104 69.9035 104.216 69.9035 104.472C69.9035 104.728 69.9915 104.952 70.1675 105.144C70.3595 105.32 70.5835 105.408 70.8395 105.408ZM69.5435 104.472C69.5435 104.216 69.4555 104 69.2795 103.824C69.1035 103.632 68.8795 103.536 68.6075 103.536C68.3515 103.536 68.1275 103.632 67.9355 103.824C67.7595 104 67.6715 104.216 67.6715 104.472C67.6715 104.728 67.7675 104.952 67.9595 105.144C68.1515 105.32 68.3675 105.408 68.6075 105.408C68.8795 105.408 69.1035 105.32 69.2795 105.144C69.4555 104.968 69.5435 104.744 69.5435 104.472ZM67.3835 104.472C67.3835 104.216 67.2875 104 67.0955 103.824C66.9195 103.632 66.7035 103.536 66.4475 103.536C66.1915 103.536 65.9755 103.632 65.7995 103.824C65.6235 104 65.5355 104.216 65.5355 104.472C65.5355 104.728 65.6235 104.952 65.7995 105.144C65.9755 105.32 66.1915 105.408 66.4475 105.408C66.7035 105.408 66.9195 105.32 67.0955 105.144C67.2875 104.968 67.3835 104.744 67.3835 104.472ZM65.2955 104.4C65.2955 104.144 65.1995 103.928 65.0075 103.752C64.8155 103.56 64.5995 103.464 64.3595 103.464C64.1035 103.464 63.8795 103.552 63.6875 103.728C63.5115 103.904 63.4235 104.128 63.4235 104.4C63.4235 104.656 63.5115 104.872 63.6875 105.048C63.8795 105.224 64.1035 105.312 64.3595 105.312C64.6155 105.312 64.8315 105.224 65.0075 105.048C65.1995 104.872 65.2955 104.656 65.2955 104.4ZM64.6235 106.296C64.6235 106.056 64.5275 105.848 64.3355 105.672C64.1435 105.48 63.9275 105.384 63.6875 105.384C63.4155 105.384 63.1915 105.472 63.0155 105.648C62.8555 105.824 62.7755 106.04 62.7755 106.296C62.7755 106.568 62.8555 106.792 63.0155 106.968C63.1915 107.144 63.4155 107.232 63.6875 107.232C63.9435 107.232 64.1595 107.144 64.3355 106.968C64.5275 106.792 64.6235 106.568 64.6235 106.296ZM67.9355 96.648C67.9355 96.408 67.8395 96.192 67.6475 96C67.4715 95.808 67.2555 95.712 66.9995 95.712C66.7435 95.712 66.5275 95.808 66.3515 96C66.1755 96.176 66.0875 96.392 66.0875 96.648C66.0875 96.904 66.1755 97.128 66.3515 97.32C66.5275 97.496 66.7435 97.584 66.9995 97.584C67.2555 97.584 67.4715 97.496 67.6475 97.32C67.8395 97.128 67.9355 96.904 67.9355 96.648ZM67.2875 98.592C67.2875 98.352 67.1915 98.136 66.9995 97.944C66.8235 97.752 66.6075 97.656 66.3515 97.656C66.0955 97.656 65.8795 97.752 65.7035 97.944C65.5275 98.12 65.4395 98.336 65.4395 98.592C65.4395 98.848 65.5275 99.072 65.7035 99.264C65.8795 99.44 66.0955 99.528 66.3515 99.528C66.6075 99.528 66.8235 99.44 66.9995 99.264C67.1915 99.072 67.2875 98.848 67.2875 98.592ZM65.9435 102.456C65.9435 102.216 65.8475 102 65.6555 101.808C65.4795 101.616 65.2635 101.52 65.0075 101.52C64.7515 101.52 64.5355 101.616 64.3595 101.808C64.1835 101.984 64.0955 102.2 64.0955 102.456C64.0955 102.712 64.1835 102.936 64.3595 103.128C64.5355 103.304 64.7515 103.392 65.0075 103.392C65.2635 103.392 65.4795 103.304 65.6555 103.128C65.8475 102.936 65.9435 102.712 65.9435 102.456ZM66.6155 100.512C66.6155 100.272 66.5195 100.056 66.3275 99.864C66.1515 99.672 65.9355 99.576 65.6795 99.576C65.4235 99.576 65.2075 99.672 65.0315 99.864C64.8555 100.04 64.7675 100.256 64.7675 100.512C64.7675 100.768 64.8555 100.992 65.0315 101.184C65.2075 101.36 65.4235 101.448 65.6795 101.448C65.9355 101.448 66.1515 101.36 66.3275 101.184C66.5195 100.992 66.6155 100.768 66.6155 100.512ZM78.5315 108V96.84H74.5955V92.904H87.1235V96.84H83.1875V108H78.5315ZM86.2835 94.824C86.2835 94.568 86.1875 94.352 85.9955 94.176C85.8195 93.984 85.6035 93.888 85.3475 93.888C85.0755 93.888 84.8515 93.984 84.6755 94.176C84.5155 94.352 84.4355 94.568 84.4355 94.824C84.4355 95.08 84.5155 95.296 84.6755 95.472C84.8515 95.648 85.0755 95.736 85.3475 95.736C85.6035 95.736 85.8195 95.648 85.9955 95.472C86.1875 95.296 86.2835 95.08 86.2835 94.824ZM84.0515 94.824C84.0515 94.568 83.9555 94.352 83.7635 94.176C83.5875 93.984 83.3715 93.888 83.1155 93.888C82.8595 93.888 82.6355 93.984 82.4435 94.176C82.2675 94.352 82.1795 94.568 82.1795 94.824C82.1795 95.08 82.2675 95.296 82.4435 95.472C82.6355 95.648 82.8595 95.736 83.1155 95.736C83.3715 95.736 83.5875 95.648 83.7635 95.472C83.9555 95.296 84.0515 95.08 84.0515 94.824ZM81.8195 94.824C81.8195 94.568 81.7315 94.352 81.5555 94.176C81.3795 93.984 81.1635 93.888 80.9075 93.888C80.6355 93.888 80.4115 93.984 80.2355 94.176C80.0595 94.352 79.9715 94.568 79.9715 94.824C79.9715 95.08 80.0595 95.296 80.2355 95.472C80.4115 95.648 80.6355 95.736 80.9075 95.736C81.1635 95.736 81.3795 95.648 81.5555 95.472C81.7315 95.296 81.8195 95.08 81.8195 94.824ZM79.5875 94.824C79.5875 94.568 79.4995 94.352 79.3235 94.176C79.1475 93.984 78.9235 93.888 78.6515 93.888C78.3955 93.888 78.1795 93.984 78.0035 94.176C77.8275 94.352 77.7395 94.568 77.7395 94.824C77.7395 95.08 77.8275 95.296 78.0035 95.472C78.1795 95.648 78.3955 95.736 78.6515 95.736C78.9235 95.736 79.1475 95.648 79.3235 95.472C79.4995 95.296 79.5875 95.08 79.5875 94.824ZM80.9075 97.968C81.1635 97.968 81.3795 97.88 81.5555 97.704C81.7315 97.528 81.8195 97.304 81.8195 97.032C81.8195 96.776 81.7315 96.56 81.5555 96.384C81.3795 96.192 81.1635 96.096 80.9075 96.096C80.6355 96.096 80.4115 96.192 80.2355 96.384C80.0595 96.56 79.9715 96.776 79.9715 97.032C79.9715 97.304 80.0595 97.528 80.2355 97.704C80.4115 97.88 80.6355 97.968 80.9075 97.968ZM77.3795 94.824C77.3795 94.568 77.2835 94.352 77.0915 94.176C76.9155 93.984 76.6995 93.888 76.4435 93.888C76.1875 93.888 75.9635 93.984 75.7715 94.176C75.5955 94.352 75.5075 94.568 75.5075 94.824C75.5075 95.08 75.5955 95.296 75.7715 95.472C75.9635 95.648 76.1875 95.736 76.4435 95.736C76.6995 95.736 76.9155 95.648 77.0915 95.472C77.2835 95.296 77.3795 95.08 77.3795 94.824ZM80.9075 100.2C81.1635 100.2 81.3795 100.112 81.5555 99.936C81.7315 99.744 81.8195 99.52 81.8195 99.264C81.8195 98.992 81.7315 98.776 81.5555 98.616C81.3795 98.44 81.1635 98.352 80.9075 98.352C80.6355 98.352 80.4115 98.44 80.2355 98.616C80.0595 98.776 79.9715 98.992 79.9715 99.264C79.9715 99.52 80.0595 99.744 80.2355 99.936C80.4115 100.112 80.6355 100.2 80.9075 100.2ZM81.8195 101.496C81.8195 101.24 81.7315 101.024 81.5555 100.848C81.3795 100.656 81.1635 100.56 80.9075 100.56C80.6355 100.56 80.4115 100.656 80.2355 100.848C80.0595 101.024 79.9715 101.24 79.9715 101.496C79.9715 101.752 80.0595 101.968 80.2355 102.144C80.4115 102.32 80.6355 102.408 80.9075 102.408C81.1635 102.408 81.3795 102.32 81.5555 102.144C81.7315 101.968 81.8195 101.752 81.8195 101.496ZM80.9075 104.64C81.1635 104.64 81.3795 104.552 81.5555 104.376C81.7315 104.2 81.8195 103.976 81.8195 103.704C81.8195 103.448 81.7315 103.232 81.5555 103.056C81.3795 102.864 81.1635 102.768 80.9075 102.768C80.6355 102.768 80.4115 102.864 80.2355 103.056C80.0595 103.232 79.9715 103.448 79.9715 103.704C79.9715 103.976 80.0595 104.2 80.2355 104.376C80.4115 104.552 80.6355 104.64 80.9075 104.64ZM80.9075 106.872C81.1635 106.872 81.3795 106.784 81.5555 106.608C81.7315 106.416 81.8195 106.192 81.8195 105.936C81.8195 105.68 81.7315 105.464 81.5555 105.288C81.3795 105.112 81.1635 105.024 80.9075 105.024C80.6355 105.024 80.4115 105.112 80.2355 105.288C80.0595 105.464 79.9715 105.68 79.9715 105.936C79.9715 106.192 80.0595 106.416 80.2355 106.608C80.4115 106.784 80.6355 106.872 80.9075 106.872ZM88.4114 108V92.904H93.1394V108H88.4114ZM91.6274 94.824C91.6274 94.568 91.5394 94.352 91.3634 94.176C91.2034 93.984 90.9874 93.888 90.7154 93.888C90.4594 93.888 90.2354 93.984 90.0434 94.176C89.8674 94.352 89.7794 94.568 89.7794 94.824C89.7794 95.08 89.8674 95.296 90.0434 95.472C90.2354 95.648 90.4594 95.736 90.7154 95.736C90.9874 95.736 91.2034 95.648 91.3634 95.472C91.5394 95.296 91.6274 95.08 91.6274 94.824ZM90.7154 97.968C90.9874 97.968 91.2034 97.88 91.3634 97.704C91.5394 97.528 91.6274 97.304 91.6274 97.032C91.6274 96.776 91.5394 96.56 91.3634 96.384C91.2034 96.192 90.9874 96.096 90.7154 96.096C90.4594 96.096 90.2354 96.192 90.0434 96.384C89.8674 96.56 89.7794 96.776 89.7794 97.032C89.7794 97.304 89.8674 97.528 90.0434 97.704C90.2354 97.88 90.4594 97.968 90.7154 97.968ZM90.7154 100.2C90.9874 100.2 91.2034 100.112 91.3634 99.936C91.5394 99.744 91.6274 99.52 91.6274 99.264C91.6274 98.992 91.5394 98.776 91.3634 98.616C91.2034 98.44 90.9874 98.352 90.7154 98.352C90.4594 98.352 90.2354 98.44 90.0434 98.616C89.8674 98.776 89.7794 98.992 89.7794 99.264C89.7794 99.52 89.8674 99.744 90.0434 99.936C90.2354 100.112 90.4594 100.2 90.7154 100.2ZM91.6274 101.496C91.6274 101.24 91.5394 101.024 91.3634 100.848C91.2034 100.656 90.9874 100.56 90.7154 100.56C90.4594 100.56 90.2354 100.656 90.0434 100.848C89.8674 101.024 89.7794 101.24 89.7794 101.496C89.7794 101.752 89.8674 101.968 90.0434 102.144C90.2354 102.32 90.4594 102.408 90.7154 102.408C90.9874 102.408 91.2034 102.32 91.3634 102.144C91.5394 101.968 91.6274 101.752 91.6274 101.496ZM90.7154 104.64C90.9874 104.64 91.2034 104.552 91.3634 104.376C91.5394 104.2 91.6274 103.976 91.6274 103.704C91.6274 103.448 91.5394 103.232 91.3634 103.056C91.2034 102.864 90.9874 102.768 90.7154 102.768C90.4594 102.768 90.2354 102.864 90.0434 103.056C89.8674 103.232 89.7794 103.448 89.7794 103.704C89.7794 103.976 89.8674 104.2 90.0434 104.376C90.2354 104.552 90.4594 104.64 90.7154 104.64ZM90.7154 106.872C90.9874 106.872 91.2034 106.784 91.3634 106.608C91.5394 106.416 91.6274 106.192 91.6274 105.936C91.6274 105.68 91.5394 105.464 91.3634 105.288C91.2034 105.112 90.9874 105.024 90.7154 105.024C90.4594 105.024 90.2354 105.112 90.0434 105.288C89.8674 105.464 89.7794 105.68 89.7794 105.936C89.7794 106.192 89.8674 106.416 90.0434 106.608C90.2354 106.784 90.4594 106.872 90.7154 106.872ZM104.431 108L99.5591 100.752V108H94.9271V92.904H99.5831L104.143 100.464V92.904H108.727V108H104.431ZM107.431 94.824C107.431 94.568 107.343 94.352 107.167 94.176C106.991 93.984 106.767 93.888 106.495 93.888C106.239 93.888 106.015 93.984 105.823 94.176C105.647 94.352 105.559 94.568 105.559 94.824C105.559 95.08 105.647 95.296 105.823 95.472C106.015 95.648 106.239 95.736 106.495 95.736C106.767 95.736 106.991 95.648 107.167 95.472C107.343 95.296 107.431 95.08 107.431 94.824ZM107.431 97.032C107.431 96.776 107.343 96.56 107.167 96.384C106.991 96.192 106.767 96.096 106.495 96.096C106.239 96.096 106.015 96.192 105.823 96.384C105.647 96.56 105.559 96.776 105.559 97.032C105.559 97.304 105.647 97.528 105.823 97.704C106.015 97.88 106.239 97.968 106.495 97.968C106.767 97.968 106.991 97.88 107.167 97.704C107.343 97.528 107.431 97.304 107.431 97.032ZM107.431 99.264C107.431 98.992 107.343 98.776 107.167 98.616C106.991 98.44 106.767 98.352 106.495 98.352C106.239 98.352 106.015 98.44 105.823 98.616C105.647 98.776 105.559 98.992 105.559 99.264C105.559 99.52 105.647 99.744 105.823 99.936C106.015 100.112 106.239 100.2 106.495 100.2C106.767 100.2 106.991 100.112 107.167 99.936C107.343 99.744 107.431 99.52 107.431 99.264ZM107.431 101.496C107.431 101.24 107.343 101.024 107.167 100.848C106.991 100.656 106.767 100.56 106.495 100.56C106.239 100.56 106.015 100.656 105.823 100.848C105.647 101.024 105.559 101.24 105.559 101.496C105.559 101.752 105.647 101.968 105.823 102.144C106.015 102.32 106.239 102.408 106.495 102.408C106.767 102.408 106.991 102.32 107.167 102.144C107.343 101.968 107.431 101.752 107.431 101.496ZM99.1511 97.104C99.4071 97.104 99.6231 97.016 99.7991 96.84C99.9751 96.648 100.063 96.424 100.063 96.168C100.063 95.912 99.9751 95.696 99.7991 95.52C99.6231 95.328 99.4071 95.232 99.1511 95.232C98.8951 95.232 98.6711 95.328 98.4791 95.52C98.3031 95.696 98.2151 95.912 98.2151 96.168C98.2151 96.408 98.3031 96.624 98.4791 96.816C98.6711 97.008 98.8951 97.104 99.1511 97.104ZM107.431 103.704C107.431 103.448 107.343 103.232 107.167 103.056C106.991 102.864 106.767 102.768 106.495 102.768C106.239 102.768 106.015 102.864 105.823 103.056C105.647 103.232 105.559 103.448 105.559 103.704C105.559 103.976 105.647 104.2 105.823 104.376C106.015 104.552 106.239 104.64 106.495 104.64C106.767 104.64 106.991 104.552 107.167 104.376C107.343 104.2 107.431 103.976 107.431 103.704ZM98.1431 94.824C98.1431 94.568 98.0551 94.352 97.8791 94.176C97.7191 93.984 97.5031 93.888 97.2311 93.888C96.9751 93.888 96.7511 93.984 96.5591 94.176C96.3831 94.352 96.2951 94.568 96.2951 94.824C96.2951 95.08 96.3831 95.296 96.5591 95.472C96.7511 95.648 96.9751 95.736 97.2311 95.736C97.5031 95.736 97.7191 95.648 97.8791 95.472C98.0551 95.296 98.1431 95.08 98.1431 94.824ZM101.263 98.232C101.263 97.976 101.167 97.76 100.975 97.584C100.799 97.408 100.583 97.32 100.327 97.32C100.071 97.32 99.8471 97.408 99.6551 97.584C99.4791 97.76 99.3911 97.976 99.3911 98.232C99.3911 98.488 99.4791 98.712 99.6551 98.904C99.8471 99.08 100.071 99.168 100.327 99.168C100.583 99.168 100.799 99.08 100.975 98.904C101.167 98.712 101.263 98.488 101.263 98.232ZM102.631 100.296C102.631 100.056 102.535 99.84 102.343 99.648C102.151 99.456 101.935 99.36 101.695 99.36C101.439 99.36 101.223 99.456 101.047 99.648C100.871 99.824 100.783 100.04 100.783 100.296C100.783 100.568 100.871 100.792 101.047 100.968C101.223 101.144 101.439 101.232 101.695 101.232C101.951 101.232 102.167 101.144 102.343 100.968C102.535 100.792 102.631 100.568 102.631 100.296ZM104.167 102.552C104.167 102.296 104.079 102.08 103.903 101.904C103.727 101.728 103.503 101.64 103.231 101.64C102.991 101.64 102.775 101.736 102.583 101.928C102.391 102.104 102.295 102.312 102.295 102.552C102.295 102.824 102.383 103.048 102.559 103.224C102.751 103.4 102.975 103.488 103.231 103.488C103.503 103.488 103.727 103.4 103.903 103.224C104.079 103.048 104.167 102.824 104.167 102.552ZM107.431 105.936C107.431 105.68 107.343 105.464 107.167 105.288C106.991 105.112 106.767 105.024 106.495 105.024C106.239 105.024 106.015 105.112 105.823 105.288C105.647 105.464 105.559 105.68 105.559 105.936C105.559 106.192 105.647 106.416 105.823 106.608C106.015 106.784 106.239 106.872 106.495 106.872C106.767 106.872 106.991 106.784 107.167 106.608C107.343 106.416 107.431 106.192 107.431 105.936ZM97.2311 97.968C97.5031 97.968 97.7191 97.88 97.8791 97.704C98.0551 97.528 98.1431 97.304 98.1431 97.032C98.1431 96.776 98.0551 96.56 97.8791 96.384C97.7191 96.192 97.5031 96.096 97.2311 96.096C96.9751 96.096 96.7511 96.192 96.5591 96.384C96.3831 96.56 96.2951 96.776 96.2951 97.032C96.2951 97.304 96.3831 97.528 96.5591 97.704C96.7511 97.88 96.9751 97.968 97.2311 97.968ZM105.535 104.448C105.535 104.192 105.447 103.976 105.271 103.8C105.095 103.624 104.871 103.536 104.599 103.536C104.343 103.536 104.127 103.624 103.951 103.8C103.775 103.976 103.687 104.192 103.687 104.448C103.687 104.72 103.775 104.944 103.951 105.12C104.127 105.296 104.343 105.384 104.599 105.384C104.855 105.384 105.071 105.296 105.247 105.12C105.439 104.928 105.535 104.704 105.535 104.448ZM97.2311 100.2C97.5031 100.2 97.7191 100.112 97.8791 99.936C98.0551 99.744 98.1431 99.52 98.1431 99.264C98.1431 98.992 98.0551 98.776 97.8791 98.616C97.7191 98.44 97.5031 98.352 97.2311 98.352C96.9751 98.352 96.7511 98.44 96.5591 98.616C96.3831 98.776 96.2951 98.992 96.2951 99.264C96.2951 99.52 96.3831 99.744 96.5591 99.936C96.7511 100.112 96.9751 100.2 97.2311 100.2ZM98.1431 101.496C98.1431 101.24 98.0551 101.024 97.8791 100.848C97.7191 100.656 97.5031 100.56 97.2311 100.56C96.9751 100.56 96.7511 100.656 96.5591 100.848C96.3831 101.024 96.2951 101.24 96.2951 101.496C96.2951 101.752 96.3831 101.968 96.5591 102.144C96.7511 102.32 96.9751 102.408 97.2311 102.408C97.5031 102.408 97.7191 102.32 97.8791 102.144C98.0551 101.968 98.1431 101.752 98.1431 101.496ZM97.2311 104.64C97.5031 104.64 97.7191 104.552 97.8791 104.376C98.0551 104.2 98.1431 103.976 98.1431 103.704C98.1431 103.448 98.0551 103.232 97.8791 103.056C97.7191 102.864 97.5031 102.768 97.2311 102.768C96.9751 102.768 96.7511 102.864 96.5591 103.056C96.3831 103.232 96.2951 103.448 96.2951 103.704C96.2951 103.976 96.3831 104.2 96.5591 104.376C96.7511 104.552 96.9751 104.64 97.2311 104.64ZM97.2311 106.872C97.5031 106.872 97.7191 106.784 97.8791 106.608C98.0551 106.416 98.1431 106.192 98.1431 105.936C98.1431 105.68 98.0551 105.464 97.8791 105.288C97.7191 105.112 97.5031 105.024 97.2311 105.024C96.9751 105.024 96.7511 105.112 96.5591 105.288C96.3831 105.464 96.2951 105.68 96.2951 105.936C96.2951 106.192 96.3831 106.416 96.5591 106.608C96.7511 106.784 96.9751 106.872 97.2311 106.872ZM117.761 102.768V98.976H125.921C125.953 99.248 125.977 99.52 125.993 99.792C126.009 100.048 126.017 100.312 126.017 100.584C126.017 101.496 125.889 102.368 125.633 103.2C125.377 104.032 124.937 104.832 124.313 105.6C123.593 106.464 122.705 107.128 121.649 107.592C120.593 108.056 119.441 108.288 118.193 108.288C117.041 108.288 115.977 108.096 115.001 107.712C114.041 107.328 113.209 106.792 112.505 106.104C111.801 105.416 111.249 104.592 110.849 103.632C110.465 102.672 110.273 101.616 110.273 100.464C110.273 99.344 110.473 98.304 110.873 97.344C111.273 96.384 111.825 95.552 112.529 94.848C113.233 94.144 114.073 93.6 115.049 93.216C116.041 92.816 117.113 92.616 118.265 92.616C119.177 92.616 119.977 92.696 120.665 92.856C121.353 93 121.953 93.224 122.465 93.528C122.977 93.816 123.417 94.176 123.785 94.608C124.169 95.04 124.513 95.528 124.817 96.072L121.529 98.616C121.161 97.976 120.737 97.512 120.257 97.224C119.777 96.936 119.097 96.792 118.217 96.792C117.753 96.792 117.321 96.88 116.921 97.056C116.537 97.216 116.193 97.456 115.889 97.776C115.601 98.08 115.369 98.464 115.193 98.928C115.033 99.376 114.953 99.888 114.953 100.464C114.953 100.96 115.025 101.432 115.169 101.88C115.329 102.312 115.553 102.696 115.841 103.032C116.129 103.368 116.481 103.632 116.897 103.824C117.313 104.016 117.777 104.112 118.289 104.112C119.377 104.112 120.257 103.664 120.929 102.768H117.761ZM123.137 96.288C123.137 96.032 123.041 95.816 122.849 95.64C122.673 95.448 122.457 95.352 122.201 95.352C121.945 95.352 121.729 95.448 121.553 95.64C121.377 95.816 121.289 96.032 121.289 96.288C121.289 96.544 121.377 96.768 121.553 96.96C121.729 97.136 121.945 97.224 122.201 97.224C122.441 97.224 122.657 97.136 122.849 96.96C123.041 96.768 123.137 96.544 123.137 96.288ZM121.241 95.088C121.241 94.832 121.153 94.616 120.977 94.44C120.801 94.264 120.577 94.176 120.305 94.176C120.049 94.176 119.833 94.264 119.657 94.44C119.481 94.616 119.393 94.832 119.393 95.088C119.393 95.344 119.481 95.568 119.657 95.76C119.833 95.936 120.049 96.024 120.305 96.024C120.561 96.024 120.777 95.936 120.953 95.76C121.145 95.568 121.241 95.344 121.241 95.088ZM118.121 95.688C118.393 95.688 118.609 95.6 118.769 95.424C118.945 95.248 119.033 95.024 119.033 94.752C119.033 94.496 118.945 94.28 118.769 94.104C118.609 93.912 118.393 93.816 118.121 93.816C117.865 93.816 117.641 93.912 117.449 94.104C117.273 94.296 117.185 94.512 117.185 94.752C117.185 95.024 117.273 95.248 117.449 95.424C117.641 95.6 117.865 95.688 118.121 95.688ZM124.601 100.872C124.601 100.616 124.505 100.4 124.313 100.224C124.137 100.032 123.921 99.936 123.665 99.936C123.409 99.936 123.193 100.024 123.017 100.2C122.841 100.376 122.753 100.6 122.753 100.872C122.753 101.128 122.841 101.344 123.017 101.52C123.193 101.696 123.409 101.784 123.665 101.784C123.937 101.784 124.161 101.696 124.337 101.52C124.513 101.344 124.601 101.128 124.601 100.872ZM122.561 100.872C122.561 100.616 122.465 100.4 122.273 100.224C122.097 100.032 121.889 99.936 121.649 99.936C121.393 99.936 121.169 100.024 120.977 100.2C120.801 100.376 120.713 100.6 120.713 100.872C120.713 101.128 120.801 101.344 120.977 101.52C121.169 101.696 121.393 101.784 121.649 101.784C121.905 101.784 122.121 101.696 122.297 101.52C122.473 101.344 122.561 101.128 122.561 100.872ZM116.969 95.28C116.969 95.024 116.873 94.808 116.681 94.632C116.505 94.44 116.289 94.344 116.033 94.344C115.761 94.344 115.537 94.44 115.361 94.632C115.185 94.808 115.097 95.024 115.097 95.28C115.097 95.536 115.185 95.76 115.361 95.952C115.537 96.128 115.761 96.216 116.033 96.216C116.273 96.216 116.489 96.12 116.681 95.928C116.873 95.736 116.969 95.52 116.969 95.28ZM124.145 102.888C124.145 102.632 124.057 102.416 123.881 102.24C123.705 102.048 123.481 101.952 123.209 101.952C122.953 101.952 122.737 102.048 122.561 102.24C122.385 102.416 122.297 102.632 122.297 102.888C122.297 103.144 122.385 103.36 122.561 103.536C122.737 103.712 122.953 103.8 123.209 103.8C123.481 103.8 123.705 103.712 123.881 103.536C124.057 103.36 124.145 103.144 124.145 102.888ZM120.521 100.872C120.521 100.616 120.425 100.4 120.233 100.224C120.057 100.032 119.849 99.936 119.609 99.936C119.353 99.936 119.129 100.024 118.937 100.2C118.761 100.376 118.673 100.6 118.673 100.872C118.673 101.128 118.761 101.344 118.937 101.52C119.129 101.696 119.353 101.784 119.609 101.784C119.865 101.784 120.081 101.696 120.257 101.52C120.433 101.344 120.521 101.128 120.521 100.872ZM115.217 96.6C115.217 96.344 115.121 96.128 114.929 95.952C114.753 95.776 114.537 95.688 114.281 95.688C114.025 95.688 113.801 95.776 113.609 95.952C113.433 96.128 113.345 96.344 113.345 96.6C113.345 96.856 113.433 97.08 113.609 97.272C113.801 97.448 114.025 97.536 114.281 97.536C114.521 97.536 114.737 97.448 114.929 97.272C115.121 97.08 115.217 96.856 115.217 96.6ZM122.897 104.592C122.897 104.32 122.801 104.096 122.609 103.92C122.433 103.744 122.217 103.656 121.961 103.656C121.689 103.656 121.465 103.744 121.289 103.92C121.113 104.096 121.025 104.32 121.025 104.592C121.025 104.848 121.113 105.072 121.289 105.264C121.465 105.44 121.689 105.528 121.961 105.528C122.201 105.528 122.417 105.432 122.609 105.24C122.801 105.048 122.897 104.832 122.897 104.592ZM114.017 98.376C114.017 98.104 113.921 97.888 113.729 97.728C113.553 97.552 113.337 97.464 113.081 97.464C112.825 97.464 112.609 97.552 112.433 97.728C112.257 97.888 112.169 98.104 112.169 98.376C112.169 98.616 112.257 98.832 112.433 99.024C112.625 99.216 112.841 99.312 113.081 99.312C113.337 99.312 113.553 99.224 113.729 99.048C113.921 98.856 114.017 98.632 114.017 98.376ZM120.281 106.728C120.521 106.728 120.729 106.64 120.905 106.464C121.097 106.272 121.193 106.048 121.193 105.792C121.193 105.52 121.105 105.304 120.929 105.144C120.753 104.968 120.537 104.88 120.281 104.88C120.025 104.88 119.801 104.968 119.609 105.144C119.433 105.304 119.345 105.52 119.345 105.792C119.345 106.048 119.433 106.272 119.609 106.464C119.801 106.64 120.025 106.728 120.281 106.728ZM113.657 100.464C113.657 100.192 113.561 99.968 113.369 99.792C113.193 99.616 112.977 99.528 112.721 99.528C112.449 99.528 112.225 99.616 112.049 99.792C111.889 99.968 111.809 100.192 111.809 100.464C111.809 100.72 111.889 100.936 112.049 101.112C112.225 101.288 112.449 101.376 112.721 101.376C112.977 101.376 113.193 101.288 113.369 101.112C113.561 100.936 113.657 100.72 113.657 100.464ZM118.097 107.112C118.369 107.112 118.585 107.024 118.745 106.848C118.921 106.656 119.009 106.432 119.009 106.176C119.009 105.92 118.921 105.704 118.745 105.528C118.585 105.352 118.369 105.264 118.097 105.264C117.841 105.264 117.617 105.352 117.425 105.528C117.249 105.704 117.161 105.92 117.161 106.176C117.161 106.432 117.249 106.656 117.425 106.848C117.617 107.024 117.841 107.112 118.097 107.112ZM114.017 102.552C114.017 102.28 113.921 102.064 113.729 101.904C113.553 101.728 113.337 101.64 113.081 101.64C112.825 101.64 112.609 101.728 112.433 101.904C112.257 102.064 112.169 102.28 112.169 102.552C112.169 102.792 112.257 103.008 112.433 103.2C112.625 103.392 112.841 103.488 113.081 103.488C113.337 103.488 113.553 103.4 113.729 103.224C113.921 103.032 114.017 102.808 114.017 102.552ZM116.897 105.648C116.897 105.392 116.809 105.176 116.633 105C116.457 104.808 116.241 104.712 115.985 104.712C115.713 104.712 115.489 104.808 115.313 105C115.137 105.176 115.049 105.392 115.049 105.648C115.049 105.904 115.137 106.12 115.313 106.296C115.489 106.472 115.713 106.56 115.985 106.56C116.225 106.56 116.433 106.472 116.609 106.296C116.801 106.12 116.897 105.904 116.897 105.648ZM115.217 104.304C115.217 104.048 115.121 103.832 114.929 103.656C114.753 103.48 114.537 103.392 114.281 103.392C114.025 103.392 113.801 103.48 113.609 103.656C113.433 103.832 113.345 104.048 113.345 104.304C113.345 104.56 113.433 104.784 113.609 104.976C113.801 105.152 114.025 105.24 114.281 105.24C114.521 105.24 114.737 105.144 114.929 104.952C115.121 104.76 115.217 104.544 115.217 104.304Z" fill="black"/>
</g>
<defs>
<filter id="filter0_d" x="0" y="0" width="276" height="191" filterUnits="userSpaceOnUse" color-interpolation-filters="sRGB">
<feFlood flood-opacity="0" result="BackgroundImageFix"/>
<feColorMatrix in="SourceAlpha" type="matrix" values="0 0 0 0 0 0 0 0 0 0 0 0 0 0 0 0 0 0 127 0"/>
<feOffset dx="20" dy="20"/>
<feGaussianBlur stdDeviation="1"/>
<feColorMatrix type="matrix" values="0 0 0 0 0 0 0 0 0 0 0 0 0 0 0 0 0 0 0.97 0"/>
<feBlend mode="normal" in2="BackgroundImageFix" result="effect1_dropShadow"/>
<feBlend mode="normal" in="SourceGraphic" in2="effect1_dropShadow" result="shape"/>
</filter>
</defs>
</svg>
